<svg xmlns="http://www.w3.org/2000/svg" viewBox="2877 25 31.578 30.089">
  <defs>
    <style>
      .cls-1 {
        fill: #525252;
      }
    </style>
  </defs>
  <g id="donusumler" transform="translate(2876.939 25.05)">
    <path id="Path_134" data-name="Path 134" class="cls-1" d="M25.2,29.9H6.5a.675.675,0,0,1-.6-.4L.1,11.7A.618.618,0,0,1,.3,11L15.5.1a.483.483,0,0,1,.7,0L31.4,11a.618.618,0,0,1,.2.7L25.8,29.5A.675.675,0,0,1,25.2,29.9ZM6.9,28.7H24.8l5.5-16.9L15.9,1.3,1.4,11.8Z"/>
    <path id="Path_135" data-name="Path 135" class="cls-1" d="M25.2,30a.764.764,0,0,1-.5-.2L15.8,17.9,7,29.8a.529.529,0,0,1-.8.1A.651.651,0,0,1,6,29l9.4-12.6a.666.666,0,0,1,1,0L25.7,29a.605.605,0,0,1-.1.8A.4.4,0,0,1,25.2,30Z"/>
    <path id="Path_136" data-name="Path 136" class="cls-1" d="M15.6,17.2a.645.645,0,0,1-.6-.6V.9a.6.6,0,0,1,1.2,0V16.6A.645.645,0,0,1,15.6,17.2Z"/>
    <path id="Path_137" data-name="Path 137" class="cls-1" d="M15.9,17.4a.613.613,0,0,1-.2-1.2L30.8,11a.632.632,0,0,1,.4,1.2L16.1,17.4Z"/>
    <path id="Path_138" data-name="Path 138" class="cls-1" d="M15.9,17.4h-.2L.5,12.2a.735.735,0,0,1-.4-.8A.68.68,0,0,1,.9,11l15.2,5.2a.68.68,0,0,1,.4.8C16.3,17.2,16.1,17.4,15.9,17.4Z"/>
    <path id="Path_139" data-name="Path 139" class="cls-1" d="M8.3,27.6a.367.367,0,0,1-.3-.1.55.55,0,0,1-.3-.5l.5-12.6a.367.367,0,0,1,.1-.3l7.1-9.4a.365.365,0,0,1,.5-.2.55.55,0,0,1,.5.3l6,9.8a.749.749,0,0,1,.1.5l-1.9,7.6a.781.781,0,0,1-.4.4L8.5,27.6Zm1-13L8.9,26.1l10.6-4.2,1.8-7.1L15.8,6Z"/>
  </g>
</svg>
