<svg xmlns="http://www.w3.org/2000/svg" viewBox="3530 189 67.164 45.66">
  <defs>
    <style>
      .cls-1 {
        fill: #fff;
      }
    </style>
  </defs>
  <g id="donusum-orani" transform="translate(3529.4 187)">
    <path id="Path_160" data-name="Path 160" class="cls-1" d="M47.292,32.516H8.684A3.973,3.973,0,0,1,4.8,28.692V8.224A3.973,3.973,0,0,1,8.684,4.4H47.292a3.973,3.973,0,0,1,3.884,3.824V28.692A3.82,3.82,0,0,1,47.292,32.516ZM8.684,6.424a1.787,1.787,0,0,0-1.828,1.8V28.692a1.789,1.789,0,0,0,1.828,1.8H47.292a1.787,1.787,0,0,0,1.828-1.8V8.224a1.789,1.789,0,0,0-1.828-1.8H8.684Z" transform="translate(5.395 2.998)"/>
    <path id="Path_161" data-name="Path 161" class="cls-1" d="M43.193,42.037h-23.3l-2.285-1.125H6.184A3.82,3.82,0,0,1,2.3,37.089V5.824A3.973,3.973,0,0,1,6.184,2H56.214A3.82,3.82,0,0,1,60.1,5.824v31.04a3.822,3.822,0,0,1-3.884,3.824H45.934l-2.513.9C43.421,42.037,43.421,42.037,43.193,42.037ZM20.576,40.013H43.193l2.513-.9H56.671a2.032,2.032,0,0,0,2.056-2.024V5.824A2.032,2.032,0,0,0,56.671,3.8H6.184A2.032,2.032,0,0,0,4.128,5.824v31.04a2.032,2.032,0,0,0,2.056,2.024H18.063Z" transform="translate(2.184 0)"/>
    <path id="Path_162" data-name="Path 162" class="cls-1" d="M64.795,27.172H3.57c-.457,0-.685-.225-.914-.675L.6,19.75a1.336,1.336,0,0,1,.228-.9c.228-.225.457-.45.685-.45h18.5a.9.9,0,1,1,0,1.8H2.656l1.371,4.723H63.881L65.251,20.2H47.661a.9.9,0,1,1,0-1.8H66.622c.228,0,.685.225.685.45.457.45.457.675.457.9L65.708,26.5C65.48,26.947,65.251,27.172,64.795,27.172Z" transform="translate(0 20.488)"/>
    <path id="Path_163" data-name="Path 163" class="cls-1" d="M11.827,15.5A3.3,3.3,0,0,1,8.4,12.349,3.3,3.3,0,0,1,11.827,9.2a3.3,3.3,0,0,1,3.427,3.149A3.451,3.451,0,0,1,11.827,15.5Zm0-4.274a1.307,1.307,0,0,0-1.371,1.35,1.463,1.463,0,0,0,1.371,1.35,1.35,1.35,0,1,0,0-2.7Z" transform="translate(10.019 8.995)"/>
    <path id="Path_164" data-name="Path 164" class="cls-1" d="M16.727,18A3.3,3.3,0,0,1,13.3,14.849,3.3,3.3,0,0,1,16.727,11.7a3.3,3.3,0,0,1,3.427,3.149A3.3,3.3,0,0,1,16.727,18Zm0-4.5a1.307,1.307,0,0,0-1.371,1.35,1.463,1.463,0,0,0,1.371,1.35,1.463,1.463,0,0,0,1.371-1.35A1.463,1.463,0,0,0,16.727,13.5Z" transform="translate(16.313 12.118)"/>
    <path id="Path_165" data-name="Path 165" class="cls-1" d="M22.027,13.1A3.3,3.3,0,0,1,18.6,9.949,3.3,3.3,0,0,1,22.027,6.8a3.3,3.3,0,0,1,3.427,3.149A3.3,3.3,0,0,1,22.027,13.1Zm0-4.274a1.307,1.307,0,0,0-1.371,1.35,1.371,1.371,0,0,0,2.741,0A1.2,1.2,0,0,0,22.027,8.824Z" transform="translate(23.121 5.997)"/>
    <path id="Path_166" data-name="Path 166" class="cls-1" d="M18.575,15.8h-.457l-7.31-3.149a1,1,0,0,1-.457-1.35,1.024,1.024,0,0,1,1.371-.45L19.032,14a1,1,0,0,1,.457,1.35C19.488,15.572,19.032,15.8,18.575,15.8Z" transform="translate(12.409 10.945)"/>
    <path id="Path_167" data-name="Path 167" class="cls-1" d="M15.87,17.958c-.228,0-.457-.225-.685-.45a.776.776,0,0,1,.228-1.125l9.138-7.648c.457-.45.914-.225,1.371.225a1.048,1.048,0,0,1-.228,1.35l-9.138,7.648Z" transform="translate(18.541 8.109)"/>
  </g>
</svg>
