<svg xmlns="http://www.w3.org/2000/svg" viewBox="3163.195 192.039 64.352 45.834">
  <defs>
    <style>
      .cls-1 {
        fill: #fff;
      }
    </style>
  </defs>
  <g id="musteri" transform="translate(3163.195 192.039)">
    <g id="Group_12" data-name="Group 12" transform="translate(16.354 0)">
      <path id="Path_140" data-name="Path 140" class="cls-1" d="M19.707,26.4A8.633,8.633,0,0,1,11.1,17.793V10.907a8.607,8.607,0,1,1,17.215,0v6.886A8.633,8.633,0,0,1,19.707,26.4Zm0-22.164a6.7,6.7,0,0,0-6.671,6.671v6.886a6.671,6.671,0,0,0,13.341,0V10.907A6.7,6.7,0,0,0,19.707,4.237Z" transform="translate(-3.569 -2.3)"/>
      <path id="Path_141" data-name="Path 141" class="cls-1" d="M33.207,35.149H13.84a6.245,6.245,0,0,1-6.24-6.24v-7.1c0-1.291.861-2.8,2.582-4.088a11.8,11.8,0,0,1,4.949-2.367l6.025-1.721a.887.887,0,0,1,.43,1.721l-6.025,1.721a10.166,10.166,0,0,0-4.3,2.152c-.646.646-1.721,1.721-1.721,2.582v7.1a4.316,4.316,0,0,0,4.3,4.3H33.207a4.316,4.316,0,0,0,4.3-4.3v-7.1c0-1.076-1.076-1.937-1.937-2.582a13.462,13.462,0,0,0-4.3-2.152l-5.81-1.721c-.43-.215-.861-.646-.646-1.076s.646-.861,1.076-.646l5.81,1.721a13.2,13.2,0,0,1,4.949,2.367c1.721,1.291,2.582,2.8,2.582,4.088v7.1A6.065,6.065,0,0,1,33.207,35.149Z" transform="translate(-7.6 10.685)"/>
      <path id="Path_142" data-name="Path 142" class="cls-1" d="M14.461,16.458A.926.926,0,0,1,13.6,15.6V13.661a.861.861,0,0,1,1.721,0v1.721C15.537,16.028,15.106,16.458,14.461,16.458Z" transform="translate(-0.689 9.794)"/>
      <path id="Path_143" data-name="Path 143" class="cls-1" d="M16.561,16.458A.926.926,0,0,1,15.7,15.6V13.661a.861.861,0,0,1,1.721,0v1.721A.984.984,0,0,1,16.561,16.458Z" transform="translate(1.73 9.794)"/>
      <path id="Path_144" data-name="Path 144" class="cls-1" d="M17.88,23.153c-3.013,0-5.38-3.228-5.38-7.1V14.761a.984.984,0,0,1,1.076-.861c.43,0,.861.646.861,1.076v1.076c0,2.8,1.721,5.164,3.658,5.164s3.658-2.367,3.658-5.164V14.976c0-.43.215-1.076.861-1.076.43,0,1.076.215,1.076.861v1.291C23.259,19.925,20.892,23.153,17.88,23.153Z" transform="translate(-1.956 11.061)"/>
      <path id="Path_145" data-name="Path 145" class="cls-1" d="M22.562,9.269a9.151,9.151,0,0,1-2.367-.43,7.563,7.563,0,0,1-1.937-1.506c-.43-.43-.861-.861-1.291-.861-1.076-.215-2.582.646-4.3,2.582a.807.807,0,0,1-1.291,0,.807.807,0,0,1,0-1.291C13.525,5.4,15.676,4.319,17.4,4.75A3.3,3.3,0,0,1,19.55,6.256a5.705,5.705,0,0,0,1.291,1.076c1.076.43,2.582.646,5.81-1.076a1.035,1.035,0,0,1,1.291.43,1.035,1.035,0,0,1-.43,1.291A11.3,11.3,0,0,1,22.562,9.269Z" transform="translate(-3.626 0.415)"/>
    </g>
    <g id="Group_15" data-name="Group 15" transform="translate(0 0)">
      <g id="Group_13" data-name="Group 13" transform="translate(37.839)">
        <path id="Path_146" data-name="Path 146" class="cls-1" d="M27.647,24.033A7.714,7.714,0,0,1,19.9,16.287v-6.24a7.747,7.747,0,0,1,15.493,0v6.025A7.764,7.764,0,0,1,27.647,24.033Zm0-19.8a5.786,5.786,0,0,0-5.81,5.81v6.025a5.81,5.81,0,0,0,11.62,0V10.047A5.786,5.786,0,0,0,27.647,4.237Z" transform="translate(-14.918 -2.3)"/>
        <path id="Path_147" data-name="Path 147" class="cls-1" d="M18.479,18.025c-.215,0-.43-.215-.646-.215a.972.972,0,0,1,0-1.291l.43-.43a11.58,11.58,0,0,1,4.3-2.152l5.38-1.506a.887.887,0,0,1,.43,1.721L23,15.658A8.46,8.46,0,0,0,19.339,17.6l-.43.43Z" transform="translate(-17.585 9.303)"/>
        <path id="Path_148" data-name="Path 148" class="cls-1" d="M34.2,31.582H22.361a.861.861,0,0,1,0-1.721H34.2A3.771,3.771,0,0,0,37.854,26.2v-6.24c0-.646-.646-1.506-1.721-2.367a11.962,11.962,0,0,0-3.658-1.937L27.31,14.152c-.43-.215-.861-.646-.646-1.076s.646-.861,1.076-.646L32.9,13.937a11.542,11.542,0,0,1,4.3,2.152c1.506,1.291,2.367,2.582,2.367,3.658v6.24A5.255,5.255,0,0,1,34.2,31.582Z" transform="translate(-13.075 9.303)"/>
        <path id="Path_149" data-name="Path 149" class="cls-1" d="M22.961,15.043a.926.926,0,0,1-.861-.861V12.461a.861.861,0,1,1,1.721,0v1.721C24.037,14.613,23.606,15.043,22.961,15.043Z" transform="translate(-12.383 8.412)"/>
        <path id="Path_150" data-name="Path 150" class="cls-1" d="M24.761,15.043a.926.926,0,0,1-.861-.861V12.461a.861.861,0,1,1,1.721,0v1.721C25.837,14.613,25.406,15.043,24.761,15.043Z" transform="translate(-10.31 8.412)"/>
        <path id="Path_151" data-name="Path 151" class="cls-1" d="M26.049,21.107c-2.8,0-4.949-2.8-4.949-6.455V13.361c0-.43.646-.861,1.076-.861s.861.646.861,1.076v.861c0,2.367,1.506,4.519,3.013,4.519,1.721,0,3.013-2.152,3.013-4.519v-.861c0-.43.215-1.076.861-1.076.43,0,1.076.215,1.076.861v1.291C31,18.31,28.847,21.107,26.049,21.107Z" transform="translate(-13.535 9.449)"/>
        <path id="Path_152" data-name="Path 152" class="cls-1" d="M30.171,8.836a7.645,7.645,0,0,1-2.152-.43A5.941,5.941,0,0,1,26.3,7.115a3.778,3.778,0,0,0-1.076-.861c-.861-.215-2.152.646-3.658,2.152a.807.807,0,0,1-1.291,0,.807.807,0,0,1,0-1.291c2.152-2.152,3.873-3.013,5.595-2.8a5.8,5.8,0,0,1,1.721,1.506,3.778,3.778,0,0,0,1.076.861c.861.43,2.152.646,4.949-1.076a.863.863,0,0,1,1.291.43,1.035,1.035,0,0,1-.43,1.291A7.456,7.456,0,0,1,30.171,8.836Z" transform="translate(-14.86 -0.014)"/>
      </g>
      <g id="Group_14" data-name="Group 14">
        <path id="Path_153" data-name="Path 153" class="cls-1" d="M10.847,24.033A7.714,7.714,0,0,1,3.1,16.287v-6.24a7.747,7.747,0,0,1,15.493,0v6.025A7.764,7.764,0,0,1,10.847,24.033Zm0-19.8a5.786,5.786,0,0,0-5.81,5.81v6.025a5.81,5.81,0,0,0,11.62,0V10.047A5.786,5.786,0,0,0,10.847,4.237Z" transform="translate(3.571 -2.3)"/>
        <path id="Path_154" data-name="Path 154" class="cls-1" d="M17.43,31.582H5.595A5.7,5.7,0,0,1,0,25.987v-6.24a4.79,4.79,0,0,1,2.367-3.658,11.58,11.58,0,0,1,4.3-2.152l5.38-1.506a.887.887,0,0,1,.43,1.721L7.1,15.658A8.46,8.46,0,0,0,3.443,17.6a3.337,3.337,0,0,0-1.506,2.367V26.2A3.771,3.771,0,0,0,5.595,29.86H17.43a.861.861,0,0,1,0,1.721Z" transform="translate(0 9.303)"/>
        <path id="Path_155" data-name="Path 155" class="cls-1" d="M17.675,18.025a.791.791,0,0,1-.646-.215c-.215,0-.215-.215-.43-.215a11.962,11.962,0,0,0-3.658-1.937L7.776,14.152c-.43-.215-.861-.646-.646-1.076s.646-.861,1.076-.646l5.164,1.506a11.542,11.542,0,0,1,4.3,2.152l.43.43a.807.807,0,0,1,0,1.291A.751.751,0,0,1,17.675,18.025Z" transform="translate(8.147 9.303)"/>
        <path id="Path_156" data-name="Path 156" class="cls-1" d="M6.161,15.043a.926.926,0,0,1-.861-.861V12.461a.926.926,0,0,1,.861-.861.926.926,0,0,1,.861.861v1.721C7.237,14.613,6.806,15.043,6.161,15.043Z" transform="translate(6.105 8.412)"/>
        <path id="Path_157" data-name="Path 157" class="cls-1" d="M7.961,15.073a.926.926,0,0,1-.861-.861V12.491a.926.926,0,0,1,.861-.861c.646-.215,1.076.215,1.076.861v1.721A.984.984,0,0,1,7.961,15.073Z" transform="translate(8.178 8.382)"/>
        <path id="Path_158" data-name="Path 158" class="cls-1" d="M9.249,21.107c-2.8,0-4.949-2.8-4.949-6.455V13.361c0-.43.646-.861,1.076-.861s.861.646.861,1.076v.861c0,2.367,1.506,4.519,3.013,4.519,1.721,0,3.013-2.152,3.013-4.519v-.861c0-.43.215-1.076.861-1.076.43,0,1.076.215,1.076.861v1.291C14.2,18.31,12.047,21.107,9.249,21.107Z" transform="translate(4.953 9.449)"/>
        <path id="Path_159" data-name="Path 159" class="cls-1" d="M13.259,8.836a7.645,7.645,0,0,1-2.152-.43A4.667,4.667,0,0,1,9.6,7.115c-.43-.43-.861-.646-1.076-.861-.861-.215-2.152.646-3.658,2.152a.807.807,0,0,1-1.291,0c-.646-.215-.646-.861-.215-1.291C5.512,4.963,7.234,4.1,8.955,4.317a4.686,4.686,0,0,1,1.937,1.506,3.778,3.778,0,0,0,1.076.861c.861.43,2.152.646,4.949-1.076a.863.863,0,0,1,1.291.43,1.035,1.035,0,0,1-.43,1.291A7.581,7.581,0,0,1,13.259,8.836Z" transform="translate(3.525 -0.014)"/>
      </g>
    </g>
  </g>
</svg>
