<svg xmlns="http://www.w3.org/2000/svg" viewBox="2753.52 195.095 86.195 39.565">
  <defs>
    <style>
      .cls-1, .cls-2 {
        fill: #fff;
      }

      .cls-2 {
        fill-rule: evenodd;
      }
    </style>
  </defs>
  <g id="para" transform="translate(2753.52 195.095)">
    <path id="Path_93" data-name="Path 93" class="cls-1" d="M57.938,26.438A13.832,13.832,0,0,1,43.8,12.867,1.612,1.612,0,0,1,45.328,11.4a1.476,1.476,0,0,1,1.528,1.467A10.873,10.873,0,0,0,57.938,23.5a1.612,1.612,0,0,1,1.528,1.467A1.612,1.612,0,0,1,57.938,26.438Z" transform="translate(21.159 -9.063)"/>
    <path id="Path_94" data-name="Path 94" class="cls-1" d="M45.328,36.938A1.612,1.612,0,0,1,43.8,35.471,13.832,13.832,0,0,1,57.938,21.9a1.612,1.612,0,0,1,1.528,1.467,1.612,1.612,0,0,1-1.528,1.467A10.873,10.873,0,0,0,46.857,35.471,1.476,1.476,0,0,1,45.328,36.938Z" transform="translate(21.159 -0.307)"/>
    <g id="Group_9" data-name="Group 9" transform="translate(0 0)">
      <path id="Path_95" data-name="Path 95" class="cls-1" d="M94.437,49.628H11.519A1.679,1.679,0,0,1,9.8,47.978V11.85a1.679,1.679,0,0,1,1.719-1.65H94.246a1.679,1.679,0,0,1,1.719,1.65V47.978A1.426,1.426,0,0,1,94.437,49.628Zm-81.007-3.3H92.718V13.684H13.43Z" transform="translate(-9.8 -10.063)"/>
      <path id="Path_96" data-name="Path 96" class="cls-1" d="M39.287,49.69a2.794,2.794,0,0,1-1.146-.367,1.693,1.693,0,0,1-.382-2.384c3.439-4.218,5.35-10.453,5.35-17.055a27.717,27.717,0,0,0-5.35-17.055,1.693,1.693,0,0,1,.382-2.384,1.862,1.862,0,0,1,2.484.367,31.391,31.391,0,0,1,6.114,19.072,31.391,31.391,0,0,1-6.114,19.072A1.674,1.674,0,0,1,39.287,49.69Z" transform="translate(15.354 -10.126)"/>
      <path id="Path_97" data-name="Path 97" class="cls-1" d="M29.951,49.69a1.288,1.288,0,0,1-1.337-.734A31.391,31.391,0,0,1,22.5,29.885a31.391,31.391,0,0,1,6.114-19.072,1.862,1.862,0,0,1,2.484-.367,1.693,1.693,0,0,1,.382,2.384c-3.439,4.218-5.35,10.453-5.35,17.055A27.717,27.717,0,0,0,31.48,46.94a1.693,1.693,0,0,1-.382,2.384A1.442,1.442,0,0,1,29.951,49.69Z" transform="translate(1.764 -10.126)"/>
      <path id="Path_98" data-name="Path 98" class="cls-1" d="M11.519,27.455a1.652,1.652,0,1,1,0-3.3,12.351,12.351,0,0,0,12.61-12.1,1.721,1.721,0,0,1,3.439,0C27.759,20.3,20.5,27.455,11.519,27.455Z" transform="translate(-9.8 -9.897)"/>
      <path id="Path_99" data-name="Path 99" class="cls-1" d="M25.949,39.455a1.679,1.679,0,0,1-1.719-1.65,12.354,12.354,0,0,0-12.61-12.1,1.652,1.652,0,1,1,0-3.3c8.98,0,16.24,6.969,16.24,15.588A2.04,2.04,0,0,1,25.949,39.455Z" transform="translate(-9.709 0.11)"/>
      <g id="Group_8" data-name="Group 8" transform="translate(33.817 8.022)">
        <path id="Path_102" data-name="Path 102" class="cls-2" d="M31.894,14.5h2.293v5.868c2.293-.734,4.776-1.65,7.26-2.567v1.834c-2.484.734-4.776,1.65-7.26,2.567v.917c2.484-.917,4.776-1.65,7.26-2.567v1.834c-2.293.917-4.776,1.65-7.26,2.567v9.72a9.452,9.452,0,0,0,5.732-2.934,7.664,7.664,0,0,0,1.719-2.567,9.442,9.442,0,0,0,.764-3.484h2.484v.367a10.885,10.885,0,0,1-1.146,4.585,11.5,11.5,0,0,1-2.675,3.3,10.816,10.816,0,0,1-3.821,2.2,10.07,10.07,0,0,1-5.35.55V25.5A41.154,41.154,0,0,1,27.5,26.97V25.137a41.157,41.157,0,0,1,4.394-1.467v-.917A41.154,41.154,0,0,1,27.5,24.22V22.386c1.528-.55,2.866-1.1,4.394-1.65C31.894,18.9,31.894,16.7,31.894,14.5Z" transform="translate(-27.5 -14.5)"/>
      </g>
    </g>
  </g>
</svg>
