<svg xmlns="http://www.w3.org/2000/svg" viewBox="2356.266 30.243 24.534 24.457">
  <defs>
    <style>
      .cls-1 {
        fill: #525252;
      }
    </style>
  </defs>
  <g id="raporlar" transform="translate(2354.566 29.243)">
    <path id="Path_122" data-name="Path 122" class="cls-1" d="M13.967,25.457a12.229,12.229,0,1,1,12.267-12.19A12.249,12.249,0,0,1,13.967,25.457Zm0-23.609A11.419,11.419,0,1,0,25.386,13.267,11.442,11.442,0,0,0,13.967,1.849Z"/>
    <path id="Path_123" data-name="Path 123" class="cls-1" d="M17.686,14.162a.364.364,0,0,1-.386-.386V1.586a.386.386,0,1,1,.772,0V13.7A.386.386,0,0,1,17.686,14.162Z" transform="translate(-3.564 -0.046)"/>
    <path id="Path_124" data-name="Path 124" class="cls-1" d="M17.474,14.693a.585.585,0,0,1-.309-.154.469.469,0,0,1,0-.617l8.41-8.255a.436.436,0,0,1,.617.617l-8.41,8.332C17.706,14.693,17.629,14.693,17.474,14.693Z" transform="translate(-3.507 -1.04)"/>
    <path id="Path_125" data-name="Path 125" class="cls-1" d="M17.48,16.069a.394.394,0,0,1-.386-.309.471.471,0,0,1,.231-.54L28.59,11.594a.415.415,0,0,1,.309.772L17.634,15.992C17.557,16.069,17.557,16.069,17.48,16.069Z" transform="translate(-3.512 -2.416)"/>
    <path id="Path_126" data-name="Path 126" class="cls-1" d="M29.413,17.772H17.686a.386.386,0,0,1,0-.772H29.413a.364.364,0,0,1,.386.386A.413.413,0,0,1,29.413,17.772Z" transform="translate(-3.564 -3.656)"/>
  </g>
</svg>
