<svg xmlns="http://www.w3.org/2000/svg" viewBox="3129 28.162 31 23.535">
  <defs>
    <style>
      .cls-1 {
        fill: #525252;
      }
    </style>
  </defs>
  <g id="sepetpazarlama" transform="translate(3128.3 23.848)">
    <g id="Group_17" data-name="Group 17" transform="translate(0.7 4.314)">
      <path id="Path_168" data-name="Path 168" class="cls-1" d="M27.757,22.482H11.435c-.219,0-.438-.11-.438-.329L7.272,10.762h0L5.739,5.284h-4.6A.471.471,0,0,1,.7,4.846a.471.471,0,0,1,.438-.438H6.067a.249.249,0,0,1,.438.11L8.039,9.995H31.152a.83.83,0,0,1,.438.219.988.988,0,0,1,.11.548l-3.4,11.5A.837.837,0,0,1,27.757,22.482Zm-15.993-.876H27.428L30.6,11.09H8.368Z" transform="translate(-0.7 -4.314)"/>
      <path id="Path_169" data-name="Path 169" class="cls-1" d="M11.881,26.163a2.081,2.081,0,1,1,2.081-2.081A2.012,2.012,0,0,1,11.881,26.163Zm0-3.286a1.2,1.2,0,1,0,1.2,1.2A1.216,1.216,0,0,0,11.881,22.876Z" transform="translate(0.168 -2.627)"/>
      <path id="Path_170" data-name="Path 170" class="cls-1" d="M24.081,26.163a2.081,2.081,0,1,1,2.081-2.081A2.012,2.012,0,0,1,24.081,26.163Zm0-3.286a1.2,1.2,0,1,0,1.2,1.2A1.216,1.216,0,0,0,24.081,22.876Z" transform="translate(1.332 -2.627)"/>
    </g>
    <path id="Path_171" data-name="Path 171" class="cls-1" d="M13.29,21.981c-.219,0-.438-.11-.438-.329L10,10.15c-.11-.219,0-.438.329-.548a.383.383,0,0,1,.548.329l2.958,11.5a.419.419,0,0,1-.329.548Z" transform="translate(0.884 0.502)"/>
    <path id="Path_172" data-name="Path 172" class="cls-1" d="M22.741,21.981h-.11c-.219-.11-.438-.329-.329-.548l2.958-11.5c.11-.219.329-.438.548-.329s.438.329.329.548l-2.958,11.5C23.179,21.871,22.96,21.981,22.741,21.981Z" transform="translate(2.058 0.502)"/>
    <path id="Path_173" data-name="Path 173" class="cls-1" d="M15.472,21.988a.471.471,0,0,1-.438-.438L13.5,10.048c0-.219.11-.548.438-.548.219,0,.548.11.548.438l1.534,11.5a.517.517,0,0,1-.548.548Z" transform="translate(1.221 0.495)"/>
    <path id="Path_174" data-name="Path 174" class="cls-1" d="M20.541,21.978h0c-.329,0-.548-.329-.438-.548l1.424-11.392c0-.219.329-.438.548-.438s.438.329.438.548l-1.534,11.5C20.979,21.869,20.76,21.978,20.541,21.978Z" transform="translate(1.848 0.504)"/>
    <path id="Path_175" data-name="Path 175" class="cls-1" d="M18.138,21.978a.471.471,0,0,1-.438-.438v-11.5a.438.438,0,0,1,.876,0v11.5C18.686,21.759,18.467,21.978,18.138,21.978Z" transform="translate(1.622 0.504)"/>
    <path id="Path_176" data-name="Path 176" class="cls-1" d="M29.28,13.476H8.138a.438.438,0,1,1,0-.876H29.28a.438.438,0,1,1,0,.876Z" transform="translate(0.668 0.79)"/>
    <path id="Path_177" data-name="Path 177" class="cls-1" d="M28.07,17.176H9.338a.438.438,0,1,1,0-.876H28.07a.438.438,0,1,1,0,.876Z" transform="translate(0.782 1.144)"/>
  </g>
</svg>
