<svg xmlns="http://www.w3.org/2000/svg" viewBox="2387.124 186.235 65.923 48.801">
  <defs>
    <style>
      .cls-1 {
        fill: #fff;
        stroke: #fff;
        stroke-miterlimit: 10;
        stroke-width: 0.75px;
      }
    </style>
  </defs>
  <g id="siparissayisi" transform="translate(2387.503 186.614)">
    <path id="Path_103" data-name="Path 103" class="cls-1" d="M63.682,40.929H8.3V18.483a1.06,1.06,0,0,1,.989-.983,1.06,1.06,0,0,1,.989.983v20.48H61.869V18.483a.989.989,0,0,1,1.978,0V40.929Z" transform="translate(-3.129 7.118)"/>
    <path id="Path_104" data-name="Path 104" class="cls-1" d="M29.318,41.248H13V17.983a.989.989,0,0,1,1.978,0v21.3H27.5V18.638a.989.989,0,0,1,1.978,0v22.61Z" transform="translate(-0.082 6.798)"/>
    <path id="Path_105" data-name="Path 105" class="cls-1" d="M19.578,17.766h-.989a.983.983,0,1,1,0-1.966h.989a.983.983,0,1,1,0,1.966Z" transform="translate(2.9 6.032)"/>
    <path id="Path_106" data-name="Path 106" class="cls-1" d="M29.057,25.788a1.253,1.253,0,0,1-.659-.328.789.789,0,0,1,0-1.147L35.65,17.6a.8.8,0,0,1,1.154,0,.789.789,0,0,1,0,1.147L29.551,25.46C29.551,25.788,29.221,25.788,29.057,25.788Z" transform="translate(9.74 7.022)"/>
    <path id="Path_107" data-name="Path 107" class="cls-1" d="M29.157,31.281c-.165,0-.494-.164-.659-.164a.789.789,0,0,1,0-1.147l9.4-9.175a.8.8,0,0,1,1.154,0,.789.789,0,0,1,0,1.147l-9.23,9.175C29.651,31.281,29.486,31.281,29.157,31.281Z" transform="translate(9.805 9.065)"/>
    <path id="Path_108" data-name="Path 108" class="cls-1" d="M19.578,17.766h-.989a.983.983,0,1,1,0-1.966h.989a.983.983,0,1,1,0,1.966Z" transform="translate(2.9 6.032)"/>
    <path id="Path_109" data-name="Path 109" class="cls-1" d="M17.089,28.681A1.06,1.06,0,0,1,16.1,27.7V22.783a.989.989,0,0,1,1.978,0V27.7A.947.947,0,0,1,17.089,28.681Z" transform="translate(1.928 9.863)"/>
    <path id="Path_110" data-name="Path 110" class="cls-1" d="M69.342,24.127a.907.907,0,0,1-.824-.492L60.112,4.3H15.938l-8.9,19.169a1.041,1.041,0,0,1-1.319.492,1.029,1.029,0,0,1-.494-1.311L14.784,2.5H61.266l8.9,20.316a1.1,1.1,0,0,1-.494,1.311Z" transform="translate(-5.162 -2.458)"/>
    <path id="Path_111" data-name="Path 111" class="cls-1" d="M12.589,24.127h-.165A1.233,1.233,0,0,1,11.6,22.98L15.721,3.319A1.239,1.239,0,0,1,16.874,2.5,1.233,1.233,0,0,1,17.7,3.647L13.743,23.307C13.413,23.8,13.083,24.127,12.589,24.127Z" transform="translate(-0.989 -2.458)"/>
    <path id="Path_112" data-name="Path 112" class="cls-1" d="M39.726,24.143a1.043,1.043,0,0,1-.989-.819L34.617,3.663c-.165-.492.165-.983.824-1.147.494-.164.989.164,1.154.819L40.715,23c.165.492-.165.983-.824,1.147Z" transform="translate(13.905 -2.475)"/>
    <path id="Path_113" data-name="Path 113" class="cls-1" d="M32.467,24.063a.921.921,0,0,1-.989-.819L29.5,3.583a.91.91,0,0,1,1.813-.164L33.291,23.08c.165.328-.165.819-.824.983Z" transform="translate(10.615 -2.394)"/>
    <path id="Path_114" data-name="Path 114" class="cls-1" d="M25.289,24.127h0a1.06,1.06,0,0,1-.989-.983V3.483a1.06,1.06,0,0,1,.989-.983h0a1.06,1.06,0,0,1,.989.983V23.144A1.06,1.06,0,0,1,25.289,24.127Z" transform="translate(7.244 -2.458)"/>
    <path id="Path_115" data-name="Path 115" class="cls-1" d="M18.889,24.063h0a.947.947,0,0,1-.989-.983L19.878,3.419a.921.921,0,0,1,.989-.819.822.822,0,0,1,.824.983L19.713,23.244C19.878,23.571,19.383,24.063,18.889,24.063Z" transform="translate(3.095 -2.394)"/>
    <path id="Path_116" data-name="Path 116" class="cls-1" d="M30.5,21.381a5.931,5.931,0,0,1-6.1-5.9.989.989,0,0,1,1.978,0,3.982,3.982,0,0,0,4.286,3.932,4.187,4.187,0,0,0,4.286-3.932.989.989,0,0,1,1.978,0A6.333,6.333,0,0,1,30.5,21.381Z" transform="translate(7.309 5.202)"/>
    <path id="Path_117" data-name="Path 117" class="cls-1" d="M24.1,21.381a5.931,5.931,0,0,1-6.1-5.9.989.989,0,0,1,1.978,0,3.982,3.982,0,0,0,4.286,3.932,4.081,4.081,0,0,0,4.286-3.932.989.989,0,0,1,1.978,0A6.333,6.333,0,0,1,24.1,21.381Z" transform="translate(3.16 5.202)"/>
    <path id="Path_118" data-name="Path 118" class="cls-1" d="M17.7,21.381a5.931,5.931,0,0,1-6.1-5.9,1.06,1.06,0,0,1,.989-.983,1.06,1.06,0,0,1,.989.983,3.982,3.982,0,0,0,4.286,3.932,4.187,4.187,0,0,0,4.286-3.932.989.989,0,0,1,1.978,0A6.333,6.333,0,0,1,17.7,21.381Z" transform="translate(-0.989 5.202)"/>
    <path id="Path_119" data-name="Path 119" class="cls-1" d="M11.463,21.381a6.075,6.075,0,0,1-6.263-5.9,1.06,1.06,0,0,1,.989-.983,1.06,1.06,0,0,1,.989.983,4.187,4.187,0,0,0,4.286,3.932,4.187,4.187,0,0,0,4.286-3.932.989.989,0,0,1,1.978,0A6.075,6.075,0,0,1,11.463,21.381Z" transform="translate(-5.138 5.202)"/>
    <path id="Path_120" data-name="Path 120" class="cls-1" d="M36.963,21.381a4.59,4.59,0,0,1-1.483-.164,5.942,5.942,0,0,1-4.78-5.734.989.989,0,0,1,1.978,0,3.856,3.856,0,0,0,3.3,3.768,2.457,2.457,0,0,0,1.154.164,4.187,4.187,0,0,0,4.286-3.932.989.989,0,0,1,1.978,0A6.333,6.333,0,0,1,36.963,21.381Z" transform="translate(11.393 5.202)"/>
    <path id="Path_121" data-name="Path 121" class="cls-1" d="M43.363,21.381a6.075,6.075,0,0,1-6.263-5.9.989.989,0,0,1,1.978,0,4.187,4.187,0,0,0,4.286,3.932,4.081,4.081,0,0,0,4.286-3.932.989.989,0,0,1,1.978,0A6.075,6.075,0,0,1,43.363,21.381Z" transform="translate(15.542 5.202)"/>
  </g>
</svg>
