<svg xmlns="http://www.w3.org/2000/svg" viewBox="2602 24 31.841 27.7">
  <defs>
    <style>
      .cls-1 {
        fill: #525252;
      }
    </style>
  </defs>
  <g id="trafikgozlem" transform="translate(2600.841 21.4)">
    <path id="Path_127" data-name="Path 127" class="cls-1" d="M32.4,30.3H1.7a.55.55,0,0,1-.5-.3.661.661,0,0,1,.1-.6L12.4,18.2a.608.608,0,0,1,.8,0L18.1,23,32,9.2a.592.592,0,0,1,.7-.1.55.55,0,0,1,.3.5V29.8A.56.56,0,0,1,32.4,30.3ZM3.1,29.2H31.9V10.9L18.5,24.2a.608.608,0,0,1-.8,0l-4.9-4.8Z"/>
    <path id="Path_128" data-name="Path 128" class="cls-1" d="M7.9,30.3a.576.576,0,0,1-.6-.6V23.6a.645.645,0,0,1,.6-.6.645.645,0,0,1,.6.6v6.1A.576.576,0,0,1,7.9,30.3Z"/>
    <path id="Path_129" data-name="Path 129" class="cls-1" d="M14,30.3a.576.576,0,0,1-.6-.6v-10a.576.576,0,0,1,.6-.6.645.645,0,0,1,.6.6v10A.576.576,0,0,1,14,30.3Z"/>
    <path id="Path_130" data-name="Path 130" class="cls-1" d="M20.2,30.3a.576.576,0,0,1-.6-.6V22a.6.6,0,1,1,1.2,0v7.8A.634.634,0,0,1,20.2,30.3Z"/>
    <path id="Path_131" data-name="Path 131" class="cls-1" d="M26.3,30.3a.576.576,0,0,1-.6-.6V15.9a.645.645,0,0,1,.6-.6.576.576,0,0,1,.6.6V29.8A.634.634,0,0,1,26.3,30.3Z"/>
    <g id="Group_11" data-name="Group 11">
      <path id="Path_132" data-name="Path 132" class="cls-1" d="M7.3,16.6a.758.758,0,0,1-.4-.2.608.608,0,0,1,0-.8L18.6,3.9a.608.608,0,0,1,.8,0,.608.608,0,0,1,0,.8L7.7,16.4A.52.52,0,0,1,7.3,16.6Z"/>
      <g id="Group_10" data-name="Group 10">
        <path id="Path_133" data-name="Path 133" class="cls-1" d="M19.9,5.8l.8-3.2-3.2.9Z"/>
      </g>
    </g>
  </g>
</svg>
