<svg xmlns="http://www.w3.org/2000/svg" viewBox="444 637 23 29.425">
  <defs>
    <style>
      .cls-1 {
        fill: #171717;
      }
    </style>
  </defs>
  <g id="iadedegisim" transform="translate(442.866 635.866)">
    <path id="Path_61" data-name="Path 61" class="cls-1" d="M14.733,24.316c-.145,0-.145,0-.29-.145l-1.6-1.016L11.1,24.316c-.29.145-.581.145-.726-.145L9.215,22.719l-1.888.29c-.29,0-.581-.145-.581-.436l-.581-1.888L4.279,20.4c-.29,0-.436-.29-.436-.581V17.927l-1.6-1.016c-.29-.145-.29-.436-.29-.726L2.682,14.3,1.375,12.845c-.29,0-.29-.29-.145-.436l1.307-1.452L1.81,9.07a.53.53,0,0,1,.29-.726l1.742-.871V5.586c0-.29.145-.581.436-.581l1.888-.29.581-1.888c.145-.29.29-.436.581-.29l1.888.29,1.162-1.452c.29-.29.581-.29.726-.145l1.6,1.016L14.3,1.23c.29-.145.581-.145.726.145l1.162,1.452,1.888-.29c.29,0,.581.145.581.436l.581,1.888,1.888.29c.29,0,.436.29.436.581V7.618l1.6,1.016c.29.145.29.436.29.726l-.726,1.888L24.025,12.7a.659.659,0,0,1,0,.726l-1.307,1.452.726,1.888a.53.53,0,0,1-.29.726l-1.6,1.016V20.4c0,.29-.145.581-.436.581l-1.888.29L18.8,22.719c-.145.29-.29.436-.581.436l-1.888-.436-1.162,1.452A.533.533,0,0,1,14.733,24.316ZM9.506,21.557c.145,0,.29.145.436.145L11.1,23.009l1.452-.871a.442.442,0,0,1,.581,0l1.452.871L15.749,21.7c.145-.145.29-.29.581-.145l1.742.29.581-1.742c0-.145.29-.29.436-.436l1.742-.29V17.637c0-.145.145-.436.29-.436l1.6-.871-.581-1.742a.873.873,0,0,1,.145-.581L23.445,12.7l-1.162-1.307a.873.873,0,0,1-.145-.581l.581-1.742-1.6-.871c-.145-.145-.29-.29-.29-.436V6.021l-1.742-.29a.464.464,0,0,1-.436-.436l-.581-1.742-1.742.29a.873.873,0,0,1-.581-.145L14.588,2.391l-1.452.871c-.29.145-.436.145-.581,0l-1.6-.871L9.941,3.843a.873.873,0,0,1-.581.145L7.618,3.7,7.038,5.3c0,.145-.29.29-.436.436l-1.742.29V7.763c0,.145-.145.436-.29.436L3.117,9.215,3.7,10.958a.873.873,0,0,1-.145.581L2.391,12.7l1.162,1.307a.873.873,0,0,1,.145.581L3.117,16.33l1.6.871c.145.145.29.29.29.436v1.742l1.6.436a.464.464,0,0,1,.436.436l.581,1.742,1.888-.436Z" transform="translate(0 0)"/>
    <path id="Path_62" data-name="Path 62" class="cls-1" d="M14.321,16v6.243l-3.34-2.323c-.145,0-.145-.145-.29-.145s-.29,0-.29.145l-3.34,2.323V16L5.9,16.145V23.26c0,.145.145.436.29.436a.442.442,0,0,0,.581,0l3.92-2.759,3.92,2.759c.145,0,.145.145.29.145h.29c.145-.145.29-.29.29-.436V16.29Z" transform="translate(2.154 6.719)"/>
    <path id="Path_63" data-name="Path 63" class="cls-1" d="M11.6,19.191a7.7,7.7,0,1,1,7.7-7.7A7.746,7.746,0,0,1,11.6,19.191Zm0-14.229A6.534,6.534,0,1,0,18.129,11.5,6.6,6.6,0,0,0,11.6,4.962Z" transform="translate(1.25 1.205)"/>
    <path id="Path_64" data-name="Path 64" class="cls-1" d="M12.887,14.993a.873.873,0,0,1-.581-.145l-1.6-.871h-.145l-1.452.871A1.105,1.105,0,0,1,7.805,14.7a.973.973,0,0,1-.436-1.162L7.515,11.8v-.145L6.208,10.491a1.393,1.393,0,0,1-.29-1.307,1.535,1.535,0,0,1,1.016-.871l1.742-.29.871-1.6A1.15,1.15,0,0,1,10.709,5.7a1.481,1.481,0,0,1,1.162.726l.726,1.6h.145l1.742.29a1.246,1.246,0,0,1,1.016.871,1.481,1.481,0,0,1-.29,1.307L13.9,11.653V11.8l.29,1.742a1.2,1.2,0,0,1-.436,1.162A5.71,5.71,0,0,1,12.887,14.993ZM10.709,12.96a.873.873,0,0,1,.581.145l1.6.871h.145v-.145L12.6,11.943a1.564,1.564,0,0,1,.29-1.162L14.194,9.62V9.475a.142.142,0,0,0-.145-.145l-1.742-.29a.92.92,0,0,1-.871-.726l-.726-1.307h0c0-.145-.145-.145-.145,0L9.693,8.749a.778.778,0,0,1-.581.436l-2.033.29a.142.142,0,0,0-.145.145v.145l1.307,1.162a1.568,1.568,0,0,1,.436,1.016l-.29,1.742v.145h.145l1.6-.871Z" transform="translate(2.136 2.063)"/>
  </g>
</svg>
