<svg xmlns="http://www.w3.org/2000/svg" viewBox="837 639 23 24.394">
  <defs>
    <style>
      .cls-1 {
        fill: #171717;
      }
    </style>
  </defs>
  <g id="kapidaodeme" transform="translate(835.7 637.9)">
    <path id="Path_51" data-name="Path 51" class="cls-1" d="M4.31,17.52a1.51,1.51,0,0,1,0-3.02,1.538,1.538,0,0,1,1.51,1.51A1.464,1.464,0,0,1,4.31,17.52Zm0-2.091a.581.581,0,1,0,0,1.162.581.581,0,1,0,0-1.162Z" transform="translate(0.242 2.166)"/>
    <path id="Path_52" data-name="Path 52" class="cls-1" d="M7.81,17.52a1.51,1.51,0,1,1,1.51-1.51A1.538,1.538,0,0,1,7.81,17.52Zm0-2.091a.581.581,0,1,0,.581.581A.622.622,0,0,0,7.81,15.429Z" transform="translate(0.808 2.166)"/>
    <path id="Path_53" data-name="Path 53" class="cls-1" d="M21.058,25.187H12.926A1.588,1.588,0,0,1,11.3,23.561V4.626A1.588,1.588,0,0,1,12.926,3h8.131a1.588,1.588,0,0,1,1.626,1.626V23.561A1.661,1.661,0,0,1,21.058,25.187ZM12.81,3.929a.75.75,0,0,0-.7.7V23.561a.75.75,0,0,0,.7.7h8.131a.75.75,0,0,0,.7-.7V4.626a.75.75,0,0,0-.7-.7Z" transform="translate(1.616 0.307)"/>
    <path id="Path_54" data-name="Path 54" class="cls-1" d="M11.507,22.474h-.581a.75.75,0,0,1-.7-.7V2.726a.75.75,0,0,1,.7-.7h8.131a.75.75,0,0,1,.7.7v.581h.929V2.726A1.588,1.588,0,0,0,19.058,1.1H10.926A1.588,1.588,0,0,0,9.3,2.726V21.661a1.588,1.588,0,0,0,1.626,1.626h.581v-.813Z" transform="translate(1.293 0)"/>
    <path id="Path_55" data-name="Path 55" class="cls-1" d="M10.593,12.991H2.229V11.829h8.364V10.9H1.765a.5.5,0,0,0-.465.465v2.091a.5.5,0,0,0,.465.465h8.944v-.929Z" transform="translate(0 1.584)"/>
    <path id="Path_56" data-name="Path 56" class="cls-1" d="M16.569,15.94A3.162,3.162,0,0,1,13.2,12.92,3.162,3.162,0,0,1,16.569,9.9a3.162,3.162,0,0,1,3.369,3.02A3.162,3.162,0,0,1,16.569,15.94Zm0-4.995a2.326,2.326,0,0,0-2.439,2.091,2.252,2.252,0,0,0,2.439,2.091,2.252,2.252,0,0,0,2.439-2.091A2.252,2.252,0,0,0,16.569,10.945Z" transform="translate(1.923 1.422)"/>
    <path id="Path_57" data-name="Path 57" class="cls-1" d="M17.3,9.482H15.445A1.041,1.041,0,0,1,14.4,8.436V6.345A1.041,1.041,0,0,1,15.445,5.3H17.3a1.041,1.041,0,0,1,1.045,1.045V8.436A1.041,1.041,0,0,1,17.3,9.482ZM15.445,6.229c-.116,0-.116,0-.116.116V8.436c0,.116,0,.116.116.116H17.3c.116,0,.116,0,.116-.116V6.345c0-.116,0-.116-.116-.116Z" transform="translate(2.117 0.679)"/>
    <path id="Path_58" data-name="Path 58" class="cls-1" d="M17.3,20.482H15.445A1.041,1.041,0,0,1,14.4,19.436V17.345A1.041,1.041,0,0,1,15.445,16.3H17.3a1.041,1.041,0,0,1,1.045,1.045v2.091A1.041,1.041,0,0,1,17.3,20.482Zm-1.859-3.369c-.116,0-.116,0-.116.116v2.207c0,.116,0,.116.116.116H17.3c.116,0,.116,0,.116-.116V17.345c0-.116,0-.116-.116-.116H15.445Z" transform="translate(2.117 2.457)"/>
    <path id="Path_59" data-name="Path 59" class="cls-1" d="M16.862,12.684a.581.581,0,1,1-.581-.581C16.513,11.987,16.862,12.335,16.862,12.684Z" transform="translate(2.327 1.775)"/>
    <path id="Path_60" data-name="Path 60" class="cls-1" d="M10.593,19.438H2.462a.25.25,0,0,1-.232-.232V10.262a.25.25,0,0,1,.232-.232h8.131V9.1H2.462A1.164,1.164,0,0,0,1.3,10.262v8.944a1.164,1.164,0,0,0,1.162,1.162h8.131Z" transform="translate(0 1.293)"/>
  </g>
</svg>
