<?xml version="1.0" encoding="utf-8"?>
<!-- Generator: Adobe Illustrator 22.0.1, SVG Export Plug-In . SVG Version: 6.00 Build 0)  -->
<svg version="1.1" id="Layer_1" xmlns="http://www.w3.org/2000/svg" xmlns:xlink="http://www.w3.org/1999/xlink" x="0px" y="0px"
	 viewBox="0 0 31.6 30.1" style="enable-background:new 0 0 31.6 30.1;" xml:space="preserve">
<style type="text/css">
	.st0{fill:#FFFFFF;}
</style>
<g id="donusumler" transform="translate(2876.939 25.05)">
	<path id="Path_134" class="st0" d="M-2851.8,4.9h-18.7c-0.3,0-0.5-0.2-0.6-0.4l-5.8-17.8c-0.1-0.3,0-0.5,0.2-0.7l15.2-10.9
		c0.2-0.2,0.5-0.2,0.7,0c0,0,0,0,0,0l15.2,10.9c0.2,0.2,0.3,0.4,0.2,0.7l-5.8,17.8C-2851.3,4.7-2851.5,4.9-2851.8,4.9z M-2870.1,3.7
		h17.9l5.5-16.9l-14.4-10.5l-14.5,10.5L-2870.1,3.7z"/>
	<path id="Path_135" class="st0" d="M-2851.8,5c-0.2,0-0.4-0.1-0.5-0.2l-8.9-11.9l-8.8,11.9c-0.2,0.2-0.5,0.3-0.7,0.2
		c0,0,0,0-0.1-0.1c-0.3-0.2-0.4-0.6-0.2-0.9c0,0,0,0,0,0l9.4-12.6c0.2-0.3,0.7-0.3,0.9-0.1c0,0,0,0,0.1,0.1l9.3,12.6
		c0.2,0.3,0.1,0.6-0.1,0.8C-2851.5,4.9-2851.6,5-2851.8,5z"/>
	<path id="Path_136" class="st0" d="M-2861.4-7.8c-0.3,0-0.6-0.3-0.6-0.6v-15.7c0-0.3,0.3-0.6,0.6-0.6c0.3,0,0.6,0.3,0.6,0.6v15.7
		C-2860.8-8.1-2861.1-7.8-2861.4-7.8z"/>
	<path id="Path_137" class="st0" d="M-2861.1-7.6c-0.3,0-0.6-0.2-0.6-0.6c0-0.3,0.2-0.5,0.4-0.6l15.1-5.2c0.3-0.1,0.7,0.1,0.8,0.4
		c0.1,0.3-0.1,0.7-0.4,0.8l-15.1,5.2H-2861.1z"/>
	<path id="Path_138" class="st0" d="M-2861.1-7.6h-0.2l-15.2-5.2c-0.3-0.1-0.5-0.5-0.4-0.8c0.1-0.3,0.5-0.5,0.8-0.4l15.2,5.2
		c0.3,0.1,0.5,0.5,0.4,0.8C-2860.7-7.8-2860.9-7.6-2861.1-7.6z"/>
	<path id="Path_139" class="st0" d="M-2868.7,2.6c-0.1,0-0.2,0-0.3-0.1c-0.2-0.1-0.3-0.3-0.3-0.5l0.5-12.6c0-0.1,0-0.2,0.1-0.3
		l7.1-9.4c0.1-0.2,0.3-0.3,0.5-0.2c0,0,0,0,0,0c0.2,0,0.4,0.1,0.5,0.3l6,9.8c0.1,0.1,0.1,0.3,0.1,0.5l-1.9,7.6
		c-0.1,0.2-0.2,0.3-0.4,0.4l-11.7,4.5H-2868.7z M-2867.7-10.4l-0.4,11.5l10.6-4.2l1.8-7.1l-5.5-8.8L-2867.7-10.4z"/>
</g>
</svg>
