<?xml version="1.0" encoding="utf-8"?>
<!-- Generator: Adobe Illustrator 22.0.1, SVG Export Plug-In . SVG Version: 6.00 Build 0)  -->
<svg version="1.1" id="Layer_1" xmlns="http://www.w3.org/2000/svg" xmlns:xlink="http://www.w3.org/1999/xlink" x="0px" y="0px"
	 viewBox="0 0 24.5 24.5" style="enable-background:new 0 0 24.5 24.5;" xml:space="preserve">
<style type="text/css">
	.st0{fill:#FFFFFF;}
</style>
<g id="raporlar" transform="translate(2354.566 29.243)">
	<path id="Path_122" class="st0" d="M-2342.3-4.8c-6.8,0-12.2-5.5-12.2-12.3s5.5-12.2,12.3-12.2c6.8,0,12.2,5.5,12.2,12.3
		c0,0,0,0,0,0C-2330.1-10.2-2335.6-4.8-2342.3-4.8z M-2342.3-28.4c-6.3,0-11.4,5.1-11.4,11.4s5.1,11.4,11.4,11.4
		c6.3,0,11.4-5.1,11.4-11.4v0C-2330.9-23.3-2336-28.4-2342.3-28.4L-2342.3-28.4z"/>
	<path id="Path_123" class="st0" d="M-2342.1-16.1c-0.2,0-0.4-0.1-0.4-0.3c0,0,0,0,0,0v-12.2c0-0.2,0.2-0.4,0.4-0.4
		c0.2,0,0.4,0.2,0.4,0.4c0,0,0,0,0,0v12.1C-2341.7-16.4-2341.9-16.2-2342.1-16.1C-2342.1-16.1-2342.1-16.1-2342.1-16.1z"/>
	<path id="Path_124" class="st0" d="M-2342.3-16.6c-0.1,0-0.2-0.1-0.3-0.2c-0.2-0.2-0.2-0.4,0-0.6l8.4-8.3c0.2-0.2,0.4-0.2,0.6,0
		c0.2,0.2,0.2,0.4,0,0.6l-8.4,8.3C-2342.1-16.6-2342.1-16.6-2342.3-16.6z"/>
	<path id="Path_125" class="st0" d="M-2342.3-16.6c-0.2,0-0.3-0.1-0.4-0.3c-0.1-0.2,0-0.4,0.2-0.5l11.3-3.6c0.2-0.1,0.5,0,0.5,0.2
		c0.1,0.2,0,0.5-0.2,0.5l-11.3,3.6C-2342.2-16.6-2342.2-16.6-2342.3-16.6z"/>
	<path id="Path_126" class="st0" d="M-2330.4-16.1h-11.7c-0.2,0-0.4-0.2-0.4-0.4c0-0.2,0.2-0.4,0.4-0.4h11.7c0.2,0,0.4,0.1,0.4,0.3
		c0,0,0,0,0,0C-2330-16.3-2330.2-16.1-2330.4-16.1z"/>
</g>
</svg>
