<?xml version="1.0" encoding="utf-8"?>
<!-- Generator: Adobe Illustrator 22.0.1, SVG Export Plug-In . SVG Version: 6.00 Build 0)  -->
<svg version="1.1" id="Layer_1" xmlns="http://www.w3.org/2000/svg" xmlns:xlink="http://www.w3.org/1999/xlink" x="0px" y="0px"
	 viewBox="0 0 31 23.5" style="enable-background:new 0 0 31 23.5;" xml:space="preserve">
<style type="text/css">
	.st0{fill:#FFFFFF;}
</style>
<g id="sepetpazarlama" transform="translate(3128.3 23.848)">
	<g id="Group_17" transform="translate(0.7 4.314)">
		<path id="Path_168" class="st0" d="M-3101.9-10h-16.3c-0.2,0-0.4-0.1-0.4-0.3l-3.7-11.4l0,0l-1.5-5.5h-4.6c-0.2,0-0.4-0.2-0.4-0.4
			c0-0.2,0.2-0.4,0.4-0.4h4.9c0.1-0.1,0.2-0.1,0.4,0c0,0,0.1,0.1,0.1,0.1l1.5,5.5h23.1c0.2,0,0.3,0.1,0.4,0.2
			c0.1,0.2,0.1,0.4,0.1,0.5l-3.4,11.5C-3101.5-10.1-3101.7-10-3101.9-10z M-3117.9-10.9h15.7l3.2-10.5h-22.2L-3117.9-10.9z"/>
		<path id="Path_169" class="st0" d="M-3117-4.6c-1.1,0-2.1-0.9-2.1-2.1c0-1.1,0.9-2.1,2.1-2.1c1.1,0,2.1,0.9,2.1,2.1l0,0
			c0,1.1-0.8,2-1.9,2.1C-3116.9-4.6-3116.9-4.6-3117-4.6z M-3117-7.9c-0.7,0-1.2,0.5-1.2,1.2c0,0.7,0.5,1.2,1.2,1.2
			c0.7,0,1.2-0.5,1.2-1.2C-3115.8-7.4-3116.3-7.9-3117-7.9L-3117-7.9z"/>
		<path id="Path_170" class="st0" d="M-3103.6-4.6c-1.1,0-2.1-0.9-2.1-2.1s0.9-2.1,2.1-2.1c1.1,0,2.1,0.9,2.1,2.1c0,0,0,0,0,0
			c0,1.1-0.8,2-1.9,2.1C-3103.5-4.6-3103.5-4.6-3103.6-4.6z M-3103.6-7.9c-0.7,0-1.2,0.5-1.2,1.2s0.5,1.2,1.2,1.2
			c0.7,0,1.2-0.5,1.2-1.2C-3102.4-7.4-3102.9-7.9-3103.6-7.9L-3103.6-7.9z"/>
	</g>
	<path id="Path_171" class="st0" d="M-3114.8-5.7c-0.2,0-0.4-0.1-0.4-0.3l-2.9-11.5c-0.1-0.2,0-0.4,0.3-0.5c0.2-0.1,0.4,0,0.5,0.2
		c0,0,0,0.1,0,0.1l3,11.5c0.1,0.2,0,0.5-0.3,0.5c0,0,0,0-0.1,0L-3114.8-5.7z"/>
	<path id="Path_172" class="st0" d="M-3104.2-5.7h-0.1c-0.2-0.1-0.4-0.3-0.3-0.5l3-11.5c0.1-0.2,0.3-0.4,0.5-0.3s0.4,0.3,0.3,0.5
		l-3,11.5C-3103.8-5.8-3104-5.7-3104.2-5.7z"/>
	<path id="Path_173" class="st0" d="M-3112.3-5.7c-0.2,0-0.4-0.2-0.4-0.4l-1.5-11.5c0-0.2,0.1-0.5,0.4-0.5c0.2,0,0.5,0.1,0.5,0.4
		l1.5,11.5C-3111.7-5.9-3112-5.7-3112.3-5.7C-3112.3-5.7-3112.3-5.7-3112.3-5.7L-3112.3-5.7z"/>
	<path id="Path_174" class="st0" d="M-3106.6-5.7L-3106.6-5.7c-0.3,0-0.5-0.3-0.4-0.5l1.4-11.4c0-0.2,0.3-0.4,0.5-0.4
		s0.4,0.3,0.4,0.5l-1.5,11.5C-3106.2-5.8-3106.4-5.7-3106.6-5.7z"/>
	<path id="Path_175" class="st0" d="M-3109.2-5.7c-0.2,0-0.4-0.2-0.4-0.4v-11.5c0-0.2,0.2-0.4,0.4-0.4c0.2,0,0.4,0.2,0.4,0.4v11.5
		C-3108.7-5.9-3108.9-5.7-3109.2-5.7z"/>
	<path id="Path_176" class="st0" d="M-3099.1-13.9h-21.1c-0.2,0-0.4-0.2-0.4-0.4c0-0.2,0.2-0.4,0.4-0.4l0,0h21.1
		c0.2,0,0.4,0.2,0.4,0.4C-3098.6-14.1-3098.8-13.9-3099.1-13.9z"/>
	<path id="Path_177" class="st0" d="M-3100.1-9.8h-18.7c-0.2,0-0.4-0.2-0.4-0.4c0-0.2,0.2-0.4,0.4-0.4c0,0,0,0,0,0h18.7
		c0.2,0,0.4,0.2,0.4,0.4C-3099.7-10-3099.9-9.8-3100.1-9.8C-3100.1-9.8-3100.1-9.8-3100.1-9.8z"/>
</g>
</svg>
