<?xml version="1.0" encoding="utf-8"?>
<!-- Generator: Adobe Illustrator 22.0.1, SVG Export Plug-In . SVG Version: 6.00 Build 0)  -->
<svg version="1.1" id="Layer_1" xmlns="http://www.w3.org/2000/svg" xmlns:xlink="http://www.w3.org/1999/xlink" x="0px" y="0px"
	 viewBox="0 0 31.8 27.7" style="enable-background:new 0 0 31.8 27.7;" xml:space="preserve">
<style type="text/css">
	.st0{fill:#FFFFFF;}
</style>
<g id="trafikgozlem" transform="translate(2600.841 21.4)">
	<path id="Path_127" class="st0" d="M-2569.6,6.3h-30.7c-0.2,0-0.4-0.1-0.5-0.3c-0.1-0.2,0-0.4,0.1-0.6l11.1-11.2
		c0.2-0.2,0.6-0.2,0.8,0l4.9,4.8l13.9-13.8c0.2-0.2,0.5-0.2,0.7-0.1c0.2,0.1,0.3,0.3,0.3,0.5V5.8C-2569,6.1-2569.3,6.3-2569.6,6.3z
		 M-2598.9,5.2h28.8v-18.3l-13.4,13.3c-0.2,0.2-0.6,0.2-0.8,0l-4.9-4.8L-2598.9,5.2z"/>
	<path id="Path_128" class="st0" d="M-2594.1,6.3c-0.3,0-0.6-0.2-0.6-0.6c0,0,0,0,0,0v-6.1c0-0.3,0.3-0.6,0.6-0.6
		c0.3,0,0.6,0.3,0.6,0.6v6.1C-2593.5,6-2593.7,6.3-2594.1,6.3C-2594.1,6.3-2594.1,6.3-2594.1,6.3z"/>
	<path id="Path_129" class="st0" d="M-2588,6.3c-0.3,0-0.6-0.2-0.6-0.6c0,0,0,0,0,0v-10c0-0.3,0.2-0.6,0.6-0.6c0,0,0,0,0,0
		c0.3,0,0.6,0.3,0.6,0.6v10C-2587.4,6-2587.6,6.3-2588,6.3C-2588,6.3-2588,6.3-2588,6.3z"/>
	<path id="Path_130" class="st0" d="M-2581.8,6.3c-0.3,0-0.6-0.2-0.6-0.6c0,0,0,0,0,0V-2c0-0.3,0.3-0.6,0.6-0.6
		c0.3,0,0.6,0.3,0.6,0.6l0,0v7.8C-2581.3,6.1-2581.5,6.3-2581.8,6.3z"/>
	<path id="Path_131" class="st0" d="M-2575.7,6.3c-0.3,0-0.6-0.2-0.6-0.6c0,0,0,0,0,0V-8.1c0-0.3,0.3-0.6,0.6-0.6
		c0.3,0,0.6,0.2,0.6,0.6c0,0,0,0,0,0V5.8C-2575.2,6.1-2575.4,6.3-2575.7,6.3z"/>
	<g id="Group_11">
		<path id="Path_132" class="st0" d="M-2594.7-7.4c-0.2,0-0.3-0.1-0.4-0.2c-0.2-0.2-0.2-0.6,0-0.8l11.7-11.7c0.2-0.2,0.6-0.2,0.8,0
			c0.2,0.2,0.2,0.6,0,0.8l-11.7,11.7C-2594.4-7.5-2594.5-7.4-2594.7-7.4z"/>
		<g id="Group_10">
			<path id="Path_133" class="st0" d="M-2582.1-18.2l0.8-3.2l-3.2,0.9L-2582.1-18.2z"/>
		</g>
	</g>
</g>
</svg>
