<svg xmlns="http://www.w3.org/2000/svg" viewBox="944 3 22.051 24">
  <defs>
    <style>
      .cls-1 {
        fill: #ff9d00;
      }
    </style>
  </defs>
  <g id="indirim" transform="translate(942.943 1.9)">
    <path id="Path_21" data-name="Path 21" class="cls-1" d="M22.3,13c.8-2.6,1.9-6.5-1.7-7.8a2.85,2.85,0,0,0-2.5.4,5.061,5.061,0,0,0-1.9,3.5H7.9A4.976,4.976,0,0,0,6.1,5.6a2.85,2.85,0,0,0-2.5-.4c-3.7,1.3-2.5,5.3-1.7,7.9L4.8,24.6a.634.634,0,0,0,.6.5H18.8a.56.56,0,0,0,.6-.5l2.8-11.5A.1.1,0,0,0,22.3,13ZM17.2,23.8H14.7V13.6h2.5ZM7,13.6H9.5V23.8H7Zm10.5-1.3V11l1.9,1.2H17.5Zm-1.3,0H14.3V10.5h1.9Zm-3.2,0H11.1V10.5H13Zm-3.1,0H8V10.5H9.9Zm-3.2,0H4.8L6.7,11Zm4.2,1.3h2.5V23.8H10.9Zm8-6.9a1.258,1.258,0,0,1,1.3-.2c1.9.7,2,2.4,1.1,5.4L17.6,9.5A3.727,3.727,0,0,1,18.9,6.7ZM4.1,6.4a1.577,1.577,0,0,1,1.3.2A3.727,3.727,0,0,1,6.7,9.4L3,11.9C2.1,8.8,2.1,7.1,4.1,6.4Zm-.7,7.2H5.7v9.3Zm15.1,9.3V13.6h2.3Z"/>
    <path id="Path_22" data-name="Path 22" class="cls-1" d="M14.3,4.9a.561.561,0,0,0-.9,0l-.6.6V1.8a.7.7,0,1,0-1.4,0V5.5l-.6-.6a.561.561,0,0,0-.9,0,.561.561,0,0,0,0,.9l1.7,1.7a.764.764,0,0,0,.5.2h0c.2,0,.3-.1.5-.2l1.7-1.7A.746.746,0,0,0,14.3,4.9Z"/>
  </g>
</svg>
