<svg xmlns="http://www.w3.org/2000/svg" viewBox="1212 67 24.6 19.8">
  <defs>
    <style>
      .cls-1 {
        fill: #171717;
      }
    </style>
  </defs>
  <g id="profil" transform="translate(1211.6 66)">
    <path id="Path_3" data-name="Path 3" class="cls-1" d="M17.7,20.8H1.8A1.367,1.367,0,0,1,.4,19.4V19a3.475,3.475,0,0,1,1.9-3.2,16.735,16.735,0,0,1,14.8,0A3.475,3.475,0,0,1,19,19v.4A1.288,1.288,0,0,1,17.7,20.8ZM9.7,15a15.012,15.012,0,0,0-7,1.6A2.789,2.789,0,0,0,1.2,19v.4a.576.576,0,0,0,.6.6H17.7a.576.576,0,0,0,.6-.6V19a2.672,2.672,0,0,0-1.5-2.4h0A17.148,17.148,0,0,0,9.7,15Z"/>
    <path id="Path_4" data-name="Path 4" class="cls-1" d="M18.8,12.6a16.054,16.054,0,0,0-3.1,0,7,7,0,0,0-3.8,1.7,3.6,3.6,0,0,1,1.1.2,5.257,5.257,0,0,1,2.8-1,7.569,7.569,0,0,1,1.5-.1,7.569,7.569,0,0,1,1.5.1,6.079,6.079,0,0,1,5.4,6.1.43.43,0,0,1-.4.4H19a1.34,1.34,0,0,1-1.3.8h6.1A1.155,1.155,0,0,0,25,19.6,7.036,7.036,0,0,0,18.8,12.6Z"/>
    <path id="Path_5" data-name="Path 5" class="cls-1" d="M10.8,20.8a.43.43,0,0,1-.4-.4V16.5a.4.4,0,1,1,.8,0v3.9A.366.366,0,0,1,10.8,20.8Z"/>
    <path id="Path_6" data-name="Path 6" class="cls-1" d="M8.6,20.8a.43.43,0,0,1-.4-.4V16.5a.4.4,0,0,1,.8,0v3.9A.43.43,0,0,1,8.6,20.8Z"/>
    <path id="Path_7" data-name="Path 7" class="cls-1" d="M14.5,6.5V6.4a1.7,1.7,0,0,0-.1-.7h0c-.3-2.7-1.9-4-4.7-4-2,0-4.6.5-4.8,4.6h0v.2a1.681,1.681,0,0,0-.8,1.8,2.594,2.594,0,0,0,.6,1.4c.2,0,.3.1.5.1a5.759,5.759,0,0,0,2.1,3.1,4.31,4.31,0,0,0,2.4.8,4.31,4.31,0,0,0,2.4-.8,5.759,5.759,0,0,0,2.1-3.1c.2,0,.3-.1.5-.2a2.026,2.026,0,0,0,.6-1.4A1.608,1.608,0,0,0,14.5,6.5Zm-4.8-4c2.3,0,3.5.9,3.9,3a2.236,2.236,0,0,1-1,.3,2.52,2.52,0,0,0-1.4-1.9.3.3,0,0,0-.4,0,.52.52,0,0,0-.2.4,3.422,3.422,0,0,1-.2,1.3.1.1,0,0,1-.1-.1A4.275,4.275,0,0,0,8.5,5a4.14,4.14,0,0,0-1.9.4,2.994,2.994,0,0,1-.8.4C6.1,2.9,8,2.5,9.7,2.5Zm4.8,5.7c-.1.5-.3.8-.4.8h-.4c-.1.1-.2.2-.2.3a5.225,5.225,0,0,1-1.9,3,3.307,3.307,0,0,1-3.8,0,4.92,4.92,0,0,1-1.9-3c0-.1-.1-.2-.2-.3H5.3A1.2,1.2,0,0,1,5,8.2a2.228,2.228,0,0,1,.2-.9.6.6,0,0,0,.4-.1.367.367,0,0,0,.1-.3V6.7a8.338,8.338,0,0,0,1.2-.4A3.233,3.233,0,0,1,8.5,6a3.707,3.707,0,0,1,1.5.4c.1.1.3.1.4.2h.3c.1,0,.1,0,.2-.1h0a2.549,2.549,0,0,0,.6-1.3,1.9,1.9,0,0,1,.4,1.2c0,.1.1.2.1.3s.2.1.3.1a10.26,10.26,0,0,0,1.4-.4h0V7c0,.1.1.3.2.3.1.1.2.1.4.1C14.3,7.3,14.5,7.6,14.5,8.2Z"/>
    <path id="Path_8" data-name="Path 8" class="cls-1" d="M17.3,1a5.758,5.758,0,0,0-4.1,1.8,1.794,1.794,0,0,1,.5.7,4.627,4.627,0,0,1,3.5-1.6c2.9,0,5,2.4,5,5.7A7.725,7.725,0,0,1,20.1,13a6.89,6.89,0,0,1,.8.3A9.018,9.018,0,0,0,23,7.6C23.1,3.9,20.6,1,17.3,1Z"/>
    <path id="Path_9" data-name="Path 9" class="cls-1" d="M12.8,12.4a5.5,5.5,0,0,0,.7.9,6.89,6.89,0,0,0,.8-.3,6.42,6.42,0,0,1-1-1.3C13.2,11.9,13,12.1,12.8,12.4Z"/>
    <path id="Path_10" data-name="Path 10" class="cls-1" d="M21.3,6.3h0A5.067,5.067,0,0,0,21.1,5c0-.1-.1-.2-.2-.3a.187.187,0,0,0-.3,0c-1.8.6-2.1.5-2.8.2-.2-.1-.5-.2-.9-.4a2.953,2.953,0,0,0-2.7.4c.1.3.1.5.2.8h0v.1a2.213,2.213,0,0,1,2.2-.5,2.01,2.01,0,0,1,.8.4c.8.4,1.3.6,3,0a1.268,1.268,0,0,0,.1.6v.4c0,.1.1.3.2.3a.367.367,0,0,0,.3.1.56.56,0,0,1,.1.6,1.268,1.268,0,0,1-.2.6h-.3c-.1.1-.2.2-.2.3A4.519,4.519,0,0,1,18.9,11a2.4,2.4,0,0,1-3,0,4.735,4.735,0,0,1-1.1-1.3.758.758,0,0,1-.4.2c-.1.2-.1.3-.2.5a3.745,3.745,0,0,0,1.2,1.3,3.722,3.722,0,0,0,2,.7,3.057,3.057,0,0,0,2-.7,4.891,4.891,0,0,0,1.7-2.5.758.758,0,0,0,.4-.2A1.5,1.5,0,0,0,22,7.8,1.676,1.676,0,0,0,21.3,6.3Z"/>
    <path id="Path_11" data-name="Path 11" class="cls-1" d="M13.6,5.5h0c-.1-.1-.1,0,0,0Z"/>
    <path id="Path_12" data-name="Path 12" class="cls-1" d="M9.9,1.7Z"/>
    <path id="Path_13" data-name="Path 13" class="cls-1" d="M12.1,12.9a1.612,1.612,0,0,1-.7.4c.1.3.2.7.3,1a3.6,3.6,0,0,1,1.1.2,2.51,2.51,0,0,1-.7-1.7C12.2,12.9,12.1,12.9,12.1,12.9Z"/>
    <path id="Path_14" data-name="Path 14" class="cls-1" d="M7.3,12.9l-.1-.1a2.7,2.7,0,0,1-.7,1.7c.4-.1.8-.1,1.2-.2a1.929,1.929,0,0,0,.3-1A1.612,1.612,0,0,1,7.3,12.9Z"/>
    <path id="Path_15" data-name="Path 15" class="cls-1" d="M15.2,11.7l-.1-.1a1.936,1.936,0,0,1-.6,1.3,5.019,5.019,0,0,1,1.2-.2,1.421,1.421,0,0,0,.2-.6A1.612,1.612,0,0,0,15.2,11.7Z"/>
    <path id="Path_16" data-name="Path 16" class="cls-1" d="M19.3,11.7a1.612,1.612,0,0,1-.7.4,1.421,1.421,0,0,0,.2.6,5.019,5.019,0,0,1,1.2.2,1.936,1.936,0,0,1-.6-1.3A.1.1,0,0,0,19.3,11.7Z"/>
  </g>
</svg>
