<svg xmlns="http://www.w3.org/2000/svg" viewBox="1044 70.53 17.37 17.37">
  <defs>
    <style>
      .cls-1 {
        fill: #fff;
      }
    </style>
  </defs>
  <path id="Path_18" data-name="Path 18" class="cls-1" d="M15.664,11.77h0a.611.611,0,0,0-.5-.166,2.119,2.119,0,0,0-1.08.5l-.416-.416A6.577,6.577,0,0,0,8.683.8,6.863,6.863,0,0,0,4.112,2.712,6.4,6.4,0,0,0,2.2,7.366a6.527,6.527,0,0,0,6.566,6.566,6.391,6.391,0,0,0,4.322-1.662l.416.416a2.916,2.916,0,0,0-.416.665.928.928,0,0,0,0,.831h0l.083.083h0l3.407,3.407a1.763,1.763,0,0,0,2.493-2.493Zm-2.909-.416A5.642,5.642,0,1,1,4.776,3.376a5.618,5.618,0,0,1,7.979,0A5.57,5.57,0,0,1,12.755,11.355Zm1.164,1.828.166.166.582-.582-.083-.166a1.49,1.49,0,0,1,.665-.332,2.124,2.124,0,0,1-.582,1,1.81,1.81,0,0,1-1,.582C13.586,13.765,13.669,13.516,13.918,13.183Zm3.906,4.488a1.067,1.067,0,0,1-.831-.332L14.085,14.43a3.369,3.369,0,0,0,.748-.416l3.574,3.574C18.24,17.588,18.074,17.671,17.825,17.671Zm1-.665-3.574-3.574a3.369,3.369,0,0,0,.416-.748l2.909,2.909a1.067,1.067,0,0,1,.332.831A.492.492,0,0,1,18.822,17.006Z" transform="translate(1041.8 69.73)"/>
</svg>
