<svg xmlns="http://www.w3.org/2000/svg" viewBox="1385 65 20.6 26.2">
  <defs>
    <style>
      .cls-1 {
        fill: #171717;
      }
    </style>
  </defs>
  <g id="sepet" transform="translate(1383.3 63.2)">
    <path id="Path_1" data-name="Path 1" class="cls-1" d="M19.8,11.2a2.2,2.2,0,0,0-4.4,0,2.188,2.188,0,0,0,1.3,2,5.027,5.027,0,0,1-9.2,0,2.368,2.368,0,0,0,1.3-2A2.557,2.557,0,0,0,6.4,9a2.22,2.22,0,0,0-2.2,2.2,2.135,2.135,0,0,0,2.1,2.2,6.115,6.115,0,0,0,11.4,0A2.274,2.274,0,0,0,19.8,11.2Zm-14.5,0a1.2,1.2,0,0,1,2.4,0,1.231,1.231,0,0,1-.5,1,1.978,1.978,0,0,1-.2-1,.5.5,0,0,0-1,0,4.1,4.1,0,0,0,.1,1.1A1.17,1.17,0,0,1,5.3,11.2ZM18,12.3a3.75,3.75,0,0,0,.1-1.1.5.5,0,0,0-1,0,3.4,3.4,0,0,1-.1,1,1.231,1.231,0,0,1-.5-1,1.2,1.2,0,0,1,2.4,0A2.012,2.012,0,0,1,18,12.3Z"/>
    <path id="Path_2" data-name="Path 2" class="cls-1" d="M22.3,7a.864.864,0,0,0-.3-.6L17.1,2a.764.764,0,0,0-.5-.2H7.3a.4.4,0,0,0-.4.2l-5,4.5h0l-.1.1h0c0,.1,0,.1-.1.2h0V27.3a.684.684,0,0,0,.7.7H21.6a.684.684,0,0,0,.7-.7V7ZM17.2,3.9l2.6,2.3H17.2ZM7.9,3.2h8.2V6.3H7.9Zm-1.1.7V6.2H4.2ZM20.9,26.6H3.1V7.7H20.8V26.6Z"/>
  </g>
</svg>
