<svg xmlns="http://www.w3.org/2000/svg" viewBox="2357 19 20.313 20">
  <defs>
    <style>
      .cls-1 {
        fill: #171717;
      }
    </style>
  </defs>
  <g id="sepet1" transform="translate(2355 17)">
    <path id="Path_68" data-name="Path 68" class="cls-1" d="M12.975,26.55a1.875,1.875,0,1,1,1.875-1.875A1.9,1.9,0,0,1,12.975,26.55Zm0-2.891a1.016,1.016,0,1,0,1.016,1.016A1.034,1.034,0,0,0,12.975,23.659Z" transform="translate(-1.991 -4.55)"/>
    <path id="Path_69" data-name="Path 69" class="cls-1" d="M24.875,26.55a1.875,1.875,0,1,1,1.875-1.875A1.9,1.9,0,0,1,24.875,26.55Zm0-2.891a1.016,1.016,0,1,0,1.016,1.016A1.034,1.034,0,0,0,24.875,23.659Z" transform="translate(-4.594 -4.55)"/>
    <path id="Path_70" data-name="Path 70" class="cls-1" d="M21.766,5.047H6.844l-.7-2.656A.52.52,0,0,0,5.594,2H2.547A.534.534,0,0,0,2,2.547a.534.534,0,0,0,.547.547H5.2l.625,2.578h0l2.109,8.438h0l.781,3.047a.587.587,0,0,0,.547.391h12.5a.547.547,0,0,0,0-1.094H9.656L9.188,14.5h12.5a.534.534,0,0,0,.547-.547V5.594A.44.44,0,0,0,21.766,5.047Zm-.547,4.219H19.5l-.781-3.125h2.5Zm-3.594,4.219-.781-3.125h1.719l.781,3.125Zm-2.891,0-.781-3.125h1.719l.781,3.125Zm-2.891,0-.781-3.125h1.719l.781,3.125Zm-.156-7.344.781,3.125H10.75L9.969,6.141Zm2.969,0,.781,3.125H13.719l-.781-3.125Zm1.875,3.125L15.75,6.141h1.719l.781,3.125ZM8.8,6.141l.781,3.125H7.859L7.078,6.141Zm-.625,4.219H9.891l.781,3.125H8.953Zm12.344,3.125-.781-3.125h1.406v3.125Z"/>
  </g>
</svg>
