<svg xmlns="http://www.w3.org/2000/svg" viewBox="2018 651 20 19.768">
  <defs>
    <style>
      .cls-1 {
        fill: #fff;
      }
    </style>
  </defs>
  <g id="destek_talebi" data-name="destek talebi" transform="translate(2017.5 650.5)">
    <g id="Group_18" data-name="Group 18" transform="translate(0.5 9.537)">
      <path id="Path_183" data-name="Path 183" class="cls-1" d="M5.047,19.019A2.049,2.049,0,0,1,3,16.971V15.347a2.047,2.047,0,1,1,4.095,0v1.624A2.049,2.049,0,0,1,5.047,19.019Zm0-5.154a1.491,1.491,0,0,0-1.483,1.483v1.624a1.483,1.483,0,1,0,2.965,0V15.347A1.54,1.54,0,0,0,5.047,13.865Z" transform="translate(-1.235 -13.3)"/>
      <path id="Path_184" data-name="Path 184" class="cls-1" d="M6.5,26.376H1.983A1.448,1.448,0,0,1,.5,24.893V23.269a1.229,1.229,0,0,1,.635-.988,3.4,3.4,0,0,1,1.13-.565l1.412-.424c.141-.071.282.071.353.212s-.071.282-.212.353l-1.412.353a2.608,2.608,0,0,0-.988.494c-.282.212-.424.424-.424.565v1.624a.935.935,0,0,0,.918.918H6.5a.935.935,0,0,0,.918-.918V23.269c0-.141-.141-.353-.424-.565a3.234,3.234,0,0,0-.988-.494l-1.341-.353a.291.291,0,1,1,.141-.565l1.341.353a2.838,2.838,0,0,1,1.13.565c.424.353.635.635.635.988v1.624A1.413,1.413,0,0,1,6.5,26.376Z" transform="translate(-0.5 -15.644)"/>
      <path id="Path_185" data-name="Path 185" class="cls-1" d="M4.982,21.659a.3.3,0,0,1-.282-.282v-.494a.282.282,0,1,1,.565,0v.424A.323.323,0,0,1,4.982,21.659Z" transform="translate(-1.735 -15.446)"/>
      <path id="Path_186" data-name="Path 186" class="cls-1" d="M6.382,21.659a.3.3,0,0,1-.282-.282v-.494a.282.282,0,1,1,.565,0v.494A.3.3,0,0,1,6.382,21.659Z" transform="translate(-2.146 -15.446)"/>
      <path id="Path_187" data-name="Path 187" class="cls-1" d="M5.241,23.781A1.587,1.587,0,0,1,3.9,22.086V21.8c0-.141.141-.282.282-.212.141,0,.282.141.212.282v.212c0,.635.353,1.13.777,1.13s.777-.565.777-1.13v-.212c0-.141.071-.282.212-.282s.282.071.282.212v.282A1.4,1.4,0,0,1,5.241,23.781Z" transform="translate(-1.5 -15.732)"/>
      <path id="Path_188" data-name="Path 188" class="cls-1" d="M5.639,16.185a1.662,1.662,0,0,1-.565-.141,1.266,1.266,0,0,1-.494-.353.74.74,0,0,0-.282-.212c-.212-.071-.565.141-.988.565a.2.2,0,0,1-.353,0,.2.2,0,0,1,0-.353c.565-.565.988-.847,1.483-.706A1.114,1.114,0,0,1,5,15.338c.071.071.141.212.282.212.212.141.565.141,1.271-.282a.255.255,0,0,1,.282.424A1.908,1.908,0,0,1,5.639,16.185Z" transform="translate(-1.191 -13.785)"/>
    </g>
    <g id="Group_19" data-name="Group 19" transform="translate(13.138 9.537)">
      <path id="Path_189" data-name="Path 189" class="cls-1" d="M22.947,19.019A2.049,2.049,0,0,1,20.9,16.971V15.347a2.047,2.047,0,1,1,4.095,0v1.624A2.049,2.049,0,0,1,22.947,19.019Zm0-5.154a1.491,1.491,0,0,0-1.483,1.483v1.624a1.483,1.483,0,1,0,2.965,0V15.347A1.491,1.491,0,0,0,22.947,13.865Z" transform="translate(-19.135 -13.3)"/>
      <path id="Path_190" data-name="Path 190" class="cls-1" d="M24.4,26.376H19.883A1.448,1.448,0,0,1,18.4,24.893V23.269a1.229,1.229,0,0,1,.635-.988,3.4,3.4,0,0,1,1.13-.565l1.412-.424c.141-.071.282.071.353.212s-.071.282-.212.353l-1.412.353a2.608,2.608,0,0,0-.988.494c-.282.212-.424.424-.424.565v1.624a.935.935,0,0,0,.918.918h4.519a.935.935,0,0,0,.918-.918V23.269c0-.141-.141-.353-.424-.565a3.234,3.234,0,0,0-.988-.494l-1.341-.353a.291.291,0,0,1,.141-.565l1.341.353a2.838,2.838,0,0,1,1.13.565c.424.353.635.635.635.988v1.624A1.294,1.294,0,0,1,24.4,26.376Z" transform="translate(-18.4 -15.644)"/>
      <path id="Path_191" data-name="Path 191" class="cls-1" d="M22.882,21.659a.3.3,0,0,1-.282-.282v-.494a.282.282,0,1,1,.565,0v.424C23.165,21.518,23.094,21.659,22.882,21.659Z" transform="translate(-19.635 -15.446)"/>
      <path id="Path_192" data-name="Path 192" class="cls-1" d="M24.382,21.659a.3.3,0,0,1-.282-.282v-.494a.282.282,0,1,1,.565,0v.494A.3.3,0,0,1,24.382,21.659Z" transform="translate(-20.076 -15.446)"/>
      <path id="Path_193" data-name="Path 193" class="cls-1" d="M23.141,23.781A1.587,1.587,0,0,1,21.8,22.086V21.8c0-.141.141-.282.282-.212.141,0,.212.141.212.282v.212c0,.635.353,1.13.777,1.13s.777-.565.777-1.13v-.212c0-.141.071-.282.212-.282s.282.071.282.212v.282A1.359,1.359,0,0,1,23.141,23.781Z" transform="translate(-19.4 -15.732)"/>
      <path id="Path_194" data-name="Path 194" class="cls-1" d="M23.539,16.185a1.662,1.662,0,0,1-.565-.141,1.266,1.266,0,0,1-.494-.353.74.74,0,0,0-.282-.212c-.212-.071-.565.141-.988.565a.25.25,0,0,1-.353-.353c.565-.565.988-.847,1.483-.706a1.114,1.114,0,0,1,.565.353c.071.071.141.212.282.212.212.071.565.141,1.271-.282a.255.255,0,1,1,.282.424A1.908,1.908,0,0,1,23.539,16.185Z" transform="translate(-19.091 -13.785)"/>
    </g>
    <g id="Group_23" data-name="Group 23" transform="translate(5.019 0.5)">
      <g id="Group_21" data-name="Group 21">
        <g id="Group_20" data-name="Group 20" transform="translate(1.906 2.753)">
          <path id="Path_195" data-name="Path 195" class="cls-1" d="M15.419,4.965H9.982a.282.282,0,0,1,0-.565h5.436a.3.3,0,0,1,.282.282A.259.259,0,0,1,15.419,4.965Z" transform="translate(-9.629 -4.4)"/>
          <path id="Path_196" data-name="Path 196" class="cls-1" d="M13.13,7.365H9.882a.282.282,0,0,1,0-.565H13.13a.282.282,0,0,1,0,.565Z" transform="translate(-9.6 -5.106)"/>
        </g>
        <path id="Path_197" data-name="Path 197" class="cls-1" d="M8.665,9.4H8.594c-.071-.071-.141-.141-.141-.212V7.207A3.531,3.531,0,0,1,6.9,4.383C6.9,2.265,9.159.5,11.842.5c2.753,0,4.942,1.765,4.942,3.883s-2.259,3.883-4.942,3.883a6.963,6.963,0,0,1-1.694-.212L8.877,9.325A.259.259,0,0,1,8.665,9.4Zm3.177-8.4c-2.471,0-4.448,1.483-4.448,3.389A3.049,3.049,0,0,0,8.806,6.854c.071.071.141.141.141.212V8.478l.918-.918c.071-.071.141-.071.282-.071a7.088,7.088,0,0,0,1.694.282c2.471,0,4.448-1.483,4.448-3.389C16.29,2.547,14.313.994,11.842.994Z" transform="translate(-6.9 -0.5)"/>
      </g>
      <g id="Group_22" data-name="Group 22" transform="translate(3.336 4.402)">
        <path id="Path_198" data-name="Path 198" class="cls-1" d="M17.679,12.711a.259.259,0,0,1-.212-.071l-.988-.988a4.552,4.552,0,0,1-1.412.212,4.416,4.416,0,0,1-3.389-1.412.25.25,0,1,1,.353-.353A3.826,3.826,0,0,0,15,11.3a4.111,4.111,0,0,0,1.341-.212.424.424,0,0,1,.282.071l.635.635V10.734c0-.071.071-.141.141-.212a2.433,2.433,0,0,0,1.13-1.977,2.628,2.628,0,0,0-.494-1.412c-.071-.141-.071-.282.071-.353s.282-.071.353.071a2.711,2.711,0,0,1,.635,1.765,2.927,2.927,0,0,1-1.271,2.33V12.5a.367.367,0,0,1-.141.282C17.75,12.711,17.679,12.711,17.679,12.711Z" transform="translate(-11.625 -6.734)"/>
      </g>
    </g>
  </g>
</svg>
