<svg xmlns="http://www.w3.org/2000/svg" viewBox="2018 313 20 20">
  <defs>
    <style>
      .cls-1 {
        fill: #fff;
      }
    </style>
  </defs>
  <g id="kargodurum" transform="translate(2017 312)">
    <path id="Path_57" data-name="Path 57" class="cls-1" d="M19.929,12,17.857,8.786l-.071-.071A3.7,3.7,0,0,0,15,7.286H13.857V6.571a2.225,2.225,0,0,0-2.214-2.214h-.071A4.132,4.132,0,0,0,7.571,1a4.063,4.063,0,0,0-4,3.357H3.214A2.225,2.225,0,0,0,1,6.571v8.714c0,.643,0,1.286.429,1.643a1.332,1.332,0,0,0,.714.357v.357A1.755,1.755,0,0,0,2.5,18.714a2.191,2.191,0,0,0,1.5.429A2.385,2.385,0,0,0,6.357,21a2.445,2.445,0,0,0,2.357-1.857h4.929a2.424,2.424,0,0,0,4.714,0h.429A2.225,2.225,0,0,0,21,16.929V15.071A6.891,6.891,0,0,0,19.929,12ZM16.643,9.643l2,3.214.071.071a1.561,1.561,0,0,1,.214.357H16.143A1.128,1.128,0,0,1,15,12.143V8.786A2.211,2.211,0,0,1,16.643,9.643Zm-9-7.857A3.357,3.357,0,1,1,4.286,5.143,3.353,3.353,0,0,1,7.643,1.786Zm-1.286,18.5a1.714,1.714,0,1,1,1.714-1.714A1.788,1.788,0,0,1,6.357,20.286Zm0-4.143a2.53,2.53,0,0,0-2.286,1.5h-.5v-.071a2.054,2.054,0,0,0-.357-1.357,1.332,1.332,0,0,0-.714-.357V6.571a.716.716,0,0,1,.714-.714h.429a4.132,4.132,0,0,0,4,3.357,4.063,4.063,0,0,0,4-3.357h.071a.716.716,0,0,1,.714.714V17.643H8.571A2.428,2.428,0,0,0,6.357,16.143Zm9.571,4.143a1.714,1.714,0,1,1,1.714-1.714A1.738,1.738,0,0,1,15.929,20.286Zm3.5-3.357a.716.716,0,0,1-.714.714h-.5a2.351,2.351,0,0,0-2.286-1.5,2.53,2.53,0,0,0-2.286,1.5h-.5V8.786h1.143v3.357A1.891,1.891,0,0,0,16.143,14h3.143a3.235,3.235,0,0,1,.214,1.143v1.786Z"/>
    <path id="Path_58" data-name="Path 58" class="cls-1" d="M8.643,7.057a.542.542,0,0,0,.286-.143l1.143-1.143a.371.371,0,0,0,.143-.286V3.057a.357.357,0,1,0-.714,0V5.486l-1.143,1a.345.345,0,0,0,0,.5C8.429,7.057,8.5,7.057,8.643,7.057Z" transform="translate(-2.071 -0.486)"/>
  </g>
</svg>
