<svg xmlns="http://www.w3.org/2000/svg" viewBox="2018 175 20 19.123">
  <defs>
    <style>
      .cls-1 {
        fill: #fff;
      }
    </style>
  </defs>
  <g id="kategoriler" transform="translate(2017.038 174)">
    <path id="Path_53" data-name="Path 53" class="cls-1" d="M1.757,6.434,10.011,9.8a2.507,2.507,0,0,0,.963.138,2.507,2.507,0,0,0,.963-.138l8.255-3.371a.991.991,0,0,0,0-1.926L11.937,1.138A2.507,2.507,0,0,0,10.974,1a2.507,2.507,0,0,0-.963.138L1.757,4.508a.991.991,0,0,0,0,1.926Zm8.8-3.99a2.432,2.432,0,0,1,.413-.069c.206,0,.344,0,.413.069l7.291,3.027-7.36,2.958a2.432,2.432,0,0,1-.413.069c-.206,0-.344,0-.413-.069L3.27,5.471Z" transform="translate(-0.012 0)"/>
    <path id="Path_54" data-name="Path 54" class="cls-1" d="M1.195,13.176l8.942,3.577a2.956,2.956,0,0,0,.825.138,2.956,2.956,0,0,0,.825-.138l8.942-3.577a.37.37,0,1,0-.275-.688l-8.942,3.577a1.519,1.519,0,0,1-1.1,0L1.47,12.488a.37.37,0,1,0-.275.688Z" transform="translate(0 -3.578)"/>
    <path id="Path_55" data-name="Path 55" class="cls-1" d="M20.455,17.688l-8.942,3.577a1.519,1.519,0,0,1-1.1,0L1.47,17.688a.37.37,0,0,0-.275.688l8.942,3.577a2.956,2.956,0,0,0,.825.138,2.956,2.956,0,0,0,.825-.138l8.942-3.577a.355.355,0,0,0,.206-.482A.378.378,0,0,0,20.455,17.688Z" transform="translate(0 -5.201)"/>
    <path id="Path_56" data-name="Path 56" class="cls-1" d="M20.455,22.388l-8.942,3.577a1.519,1.519,0,0,1-1.1,0L1.47,22.388a.37.37,0,0,0-.275.688l8.942,3.577a2.956,2.956,0,0,0,.825.138,2.956,2.956,0,0,0,.825-.138l8.942-3.577a.355.355,0,0,0,.206-.482A.378.378,0,0,0,20.455,22.388Z" transform="translate(0 -6.668)"/>
  </g>
</svg>
