<svg xmlns="http://www.w3.org/2000/svg" viewBox="2018 122 20 20.064">
  <defs>
    <style>
      .cls-1 {
        fill: #fff;
      }
    </style>
  </defs>
  <g id="dashboard" transform="translate(2018 122)">
    <path id="Path_43" data-name="Path 43" class="cls-1" d="M7,18.3a.385.385,0,0,0-.4.4v4.08a.4.4,0,1,0,.8,0V18.7A.432.432,0,0,0,7,18.3Z" transform="translate(-2.186 -6.061)"/>
    <path id="Path_44" data-name="Path 44" class="cls-1" d="M7.034,9.282a.385.385,0,0,0,.4-.4V4.8a.385.385,0,0,0-.4-.4.375.375,0,0,0-.334.4v4.08A.375.375,0,0,0,7.034,9.282Z" transform="translate(-2.219 -1.457)"/>
    <path id="Path_45" data-name="Path 45" class="cls-1" d="M14.8,23.3a.385.385,0,0,0-.4.4v.736a.4.4,0,1,0,.8,0V23.7A.432.432,0,0,0,14.8,23.3Z" transform="translate(-4.769 -7.717)"/>
    <path id="Path_46" data-name="Path 46" class="cls-1" d="M14.8,12.626a.385.385,0,0,0,.4-.4V4.8a.4.4,0,1,0-.8,0v7.424A.432.432,0,0,0,14.8,12.626Z" transform="translate(-4.769 -1.457)"/>
    <path id="Path_47" data-name="Path 47" class="cls-1" d="M22.6,14.4a.385.385,0,0,0-.4.4v6.688a.4.4,0,1,0,.8,0V14.8C22.936,14.6,22.8,14.4,22.6,14.4Z" transform="translate(-7.353 -4.769)"/>
    <path id="Path_48" data-name="Path 48" class="cls-1" d="M22.6,6.674a.385.385,0,0,0,.4-.4V4.8a.4.4,0,0,0-.8,0V6.273A.432.432,0,0,0,22.6,6.674Z" transform="translate(-7.353 -1.457)"/>
    <path id="Path_49" data-name="Path 49" class="cls-1" d="M6.273,12.2A1.869,1.869,0,0,0,4.4,14.073a1.829,1.829,0,0,0,1.873,1.873,1.869,1.869,0,0,0,1.873-1.873A1.829,1.829,0,0,0,6.273,12.2Zm0,3.01a1.127,1.127,0,0,1-1.137-1.137,1.088,1.088,0,0,1,1.137-1.137,1.137,1.137,0,0,1,0,2.274Z" transform="translate(-1.457 -4.041)"/>
    <path id="Path_50" data-name="Path 50" class="cls-1" d="M14.073,17.2A1.869,1.869,0,0,0,12.2,19.073a1.829,1.829,0,0,0,1.873,1.873,1.873,1.873,0,0,0,0-3.745Zm0,3.01a1.127,1.127,0,0,1-1.137-1.137,1.088,1.088,0,0,1,1.137-1.137,1.137,1.137,0,1,1,0,2.274Z" transform="translate(-4.041 -5.697)"/>
    <path id="Path_51" data-name="Path 51" class="cls-1" d="M21.873,8.3A1.869,1.869,0,0,0,20,10.173a1.829,1.829,0,0,0,1.873,1.873,1.873,1.873,0,0,0,0-3.745Zm0,3.01a1.137,1.137,0,1,1,1.137-1.137A1.222,1.222,0,0,1,21.873,11.31Z" transform="translate(-6.624 -2.749)"/>
    <path id="Path_52" data-name="Path 52" class="cls-1" d="M17.857,0H2.207A2.227,2.227,0,0,0,0,2.207V17.79a2.241,2.241,0,0,0,2.207,2.274H17.79A2.227,2.227,0,0,0,20,17.857V2.207A2.128,2.128,0,0,0,17.857,0Zm.736,17.857a.742.742,0,0,1-.736.736H2.207a.742.742,0,0,1-.736-.736V2.207a.742.742,0,0,1,.736-.736H17.79a.742.742,0,0,1,.736.736v15.65Z"/>
  </g>
</svg>
