<svg xmlns="http://www.w3.org/2000/svg" viewBox="2018 568 20 16.552">
  <defs>
    <style>
      .cls-1 {
        fill: #fff;
      }
    </style>
  </defs>
  <g id="menuyonetimi" transform="translate(2018 567.9)">
    <path id="Path_67" data-name="Path 67" class="cls-1" d="M17.793.1H2.207A2.017,2.017,0,0,0,0,1.926v12.9a2.017,2.017,0,0,0,2.207,1.826H17.793A2.017,2.017,0,0,0,20,14.825V1.926A2.017,2.017,0,0,0,17.793.1ZM2.207,1.3H17.793a.709.709,0,0,1,.759.628V3.753H1.448V1.926A.709.709,0,0,1,2.207,1.3ZM17.793,15.4H2.207a.709.709,0,0,1-.759-.628V4.381H18.483V14.825C18.552,15.168,18.207,15.4,17.793,15.4Z" transform="translate(0 0)"/>
    <path id="Path_68" data-name="Path 68" class="cls-1" d="M4.145,4.428h3.31c.207,0,.345-.114.345-.285A.344.344,0,0,0,7.455,3.8H4.145a.344.344,0,0,0-.345.342C3.8,4.314,3.938,4.428,4.145,4.428Z" transform="translate(-1.179 -1.588)"/>
    <path id="Path_69" data-name="Path 69" class="cls-1" d="M22.945,4.428h1.1c.207,0,.345-.114.345-.285a.344.344,0,0,0-.345-.342h-1.1c-.207,0-.345.114-.345.285A.344.344,0,0,0,22.945,4.428Z" transform="translate(-7.014 -1.588)"/>
  </g>
</svg>
