<svg xmlns="http://www.w3.org/2000/svg" viewBox="2018 266 20 19.931">
  <defs>
    <style>
      .cls-1 {
        fill: #fff;
      }
    </style>
  </defs>
  <g id="moduller" transform="translate(2018 265.9)">
    <path id="Path_61" data-name="Path 61" class="cls-1" d="M5.931,19.4H2.207A2.179,2.179,0,0,0,0,21.607v2.207a2.179,2.179,0,0,0,2.207,2.207H5.931a2.179,2.179,0,0,0,2.207-2.207V21.607A2.222,2.222,0,0,0,5.931,19.4Zm.759,4.483a.765.765,0,0,1-.759.759H2.207a.765.765,0,0,1-.759-.759V21.676a.765.765,0,0,1,.759-.759H5.931a.765.765,0,0,1,.759.759v2.207Z" transform="translate(0 -5.99)"/>
    <path id="Path_62" data-name="Path 62" class="cls-1" d="M23.131,19.4H19.407A2.179,2.179,0,0,0,17.2,21.607v2.207a2.179,2.179,0,0,0,2.207,2.207h3.724a2.179,2.179,0,0,0,2.207-2.207V21.607A2.222,2.222,0,0,0,23.131,19.4Zm.759,4.483a.765.765,0,0,1-.759.759H19.407a.765.765,0,0,1-.759-.759V21.676a.765.765,0,0,1,.759-.759h3.724a.765.765,0,0,1,.759.759Z" transform="translate(-5.338 -5.99)"/>
    <path id="Path_63" data-name="Path 63" class="cls-1" d="M10.807,6.79h3.724a2.179,2.179,0,0,0,2.207-2.207V2.307A2.179,2.179,0,0,0,14.531.1H10.807A2.179,2.179,0,0,0,8.6,2.307V4.514A2.237,2.237,0,0,0,10.807,6.79Zm-.759-4.483a.765.765,0,0,1,.759-.759h3.724a.765.765,0,0,1,.759.759V4.514a.765.765,0,0,1-.759.759H10.807a.765.765,0,0,1-.759-.759V2.307Z" transform="translate(-2.669)"/>
    <path id="Path_64" data-name="Path 64" class="cls-1" d="M17.262,14.055v1.862a.345.345,0,1,0,.69,0V14.055a1.089,1.089,0,0,0-1.1-1.1H12.021V10.745a.345.345,0,1,0-.69,0v2.138H6.5a1.089,1.089,0,0,0-1.1,1.1v1.862a.345.345,0,1,0,.69,0V13.986a.326.326,0,0,1,.345-.345H16.779A.461.461,0,0,1,17.262,14.055Z" transform="translate(-1.676 -3.197)"/>
  </g>
</svg>
