<svg xmlns="http://www.w3.org/2000/svg" viewBox="2018 470 20 20.569">
  <defs>
    <style>
      .cls-1 {
        fill: #fff;
      }
    </style>
  </defs>
  <path id="musteriler" class="cls-1" d="M19.715,17.965l-.142-.569c-.5-1.566-4.769-3.772-5.409-4.057a11.094,11.094,0,0,1-1.21-.641,2.421,2.421,0,0,1-.071-.712,2.059,2.059,0,0,0,.783-.783.983.983,0,0,1,.214-.285,4.81,4.81,0,0,0,.569-1.068,2.166,2.166,0,0,0,.569-.569,5.215,5.215,0,0,0,.569-2.989,1.107,1.107,0,0,0-.427-.569A4.858,4.858,0,0,0,12.028.954,12.9,12.9,0,0,0,10.178.314,3.913,3.913,0,0,0,9.039.1H8.826A1.16,1.16,0,0,0,7.9.883h0A1.862,1.862,0,0,0,6.263,2.164v.142A5.1,5.1,0,0,0,4.911,5.723a1.107,1.107,0,0,0-.427.569,4.7,4.7,0,0,0,.569,2.989,1.4,1.4,0,0,0,.641.641,2.925,2.925,0,0,0,.569.925,1.489,1.489,0,0,0,.285.427,2.3,2.3,0,0,0,.783.854c0,.214-.071.356-.071.569l-.142.214a2.991,2.991,0,0,1-.854.5C6.192,13.41,1,15.545.427,17.538A12.974,12.974,0,0,1,0,18.819v.214c0,1.139.783,1.637,2.278,1.637H17.722c.641,0,2.278,0,2.278-1.566A6.4,6.4,0,0,0,19.715,17.965ZM6.9,9a.69.69,0,0,0-.569-.5A4.835,4.835,0,0,1,5.907,7a.948.948,0,0,0,.356-.214.554.554,0,0,0,.214-.5A3.781,3.781,0,0,1,7.758,2.947a.879.879,0,0,0,.285-.569c.142,0,.285-.071.427-.071a.876.876,0,0,0,.712-.356.261.261,0,0,0,.071-.214,3.083,3.083,0,0,0,.356.071,15.511,15.511,0,0,1,1.708.569c1.637.641,2.278,1.851,2.206,3.915a.808.808,0,0,0,.214.569.983.983,0,0,0,.285.214,4.355,4.355,0,0,1-.427,1.495.7.7,0,0,0-.5.5,7.254,7.254,0,0,1-.569,1.068,1.556,1.556,0,0,0-.214.356.884.884,0,0,1-.569.427.857.857,0,0,0-.5.712,5.528,5.528,0,0,0,.214,1.708c.071.356.356.712,1.281,1.21L9.964,15.972,7.473,14.548A1.885,1.885,0,0,0,8.541,13.2l.071-.356a7.926,7.926,0,0,0,.142-1.21.774.774,0,0,0-.5-.712,1.2,1.2,0,0,1-.569-.5,3.013,3.013,0,0,0-.356-.5A4.891,4.891,0,0,0,6.9,9ZM17.722,19.175H2.278c-.356,0-.569,0-.641-.071.071-.285.285-.854.356-1.139.142-.641,2.633-2.206,4.769-3.06l3.132,1.779c.071,0,.142.071.214.071a.261.261,0,0,0,.214-.071l3.488-1.851c1.708.783,4.2,2.491,4.413,2.989l.142.569a1.906,1.906,0,0,1,.142.641A1.82,1.82,0,0,1,17.722,19.175Z" transform="translate(2018 469.9)"/>
</svg>
