<svg xmlns="http://www.w3.org/2000/svg" viewBox="2018 518 20 20.066">
  <defs>
    <style>
      .cls-1 {
        fill: #fff;
      }
    </style>
  </defs>
  <g id="satisistatistikleri" transform="translate(2018 517.9)">
    <path id="Path_65" data-name="Path 65" class="cls-1" d="M17.852.1H2.214A2.186,2.186,0,0,0,0,2.314v11.9a2.186,2.186,0,0,0,2.214,2.214H6.642v.83l-.83,1.107A1.265,1.265,0,0,0,5.6,19.543a1.193,1.193,0,0,0,1.038.623h6.712a1.013,1.013,0,0,0,1.038-.623.972.972,0,0,0-.208-1.176l-.83-1.107v-.83h4.428A2.186,2.186,0,0,0,20,14.215V2.314A2.089,2.089,0,0,0,17.852.1ZM2.214,1.553H17.852a.768.768,0,0,1,.761.761v9.272H1.453V2.314A.768.768,0,0,1,2.214,1.553Zm10.379,17.09H7.542l.692-.83V16.429H11.97v1.384Zm5.259-3.667H2.214a.768.768,0,0,1-.761-.761V12.347h17.09v1.868A.673.673,0,0,1,17.852,14.976Z" transform="translate(0 0)"/>
    <path id="Path_66" data-name="Path 66" class="cls-1" d="M18.453,8.167H17.208L15.824,5.054a.381.381,0,0,0-.346-.208h0a.381.381,0,0,0-.346.208l-1.937,4.5-.415-.761a.392.392,0,0,0-.692,0L11.05,11.419,9.458,4.777A.46.46,0,0,0,9.112,4.5c-.138,0-.346.069-.346.277L7.106,10.035,6.068,8.721a.359.359,0,0,0-.277-.138.276.276,0,0,0-.277.138l-.623.623H3.646a.346.346,0,0,0,0,.692H5.1A.525.525,0,0,0,5.376,9.9l.415-.415L7.036,11a.3.3,0,0,0,.346.069.3.3,0,0,0,.277-.277L9.112,6.161l1.522,6.5c.069.138.138.277.346.277h0a.381.381,0,0,0,.346-.208L12.5,9.759l.346.761a.392.392,0,0,0,.692,0l2.007-4.428,1.107,2.56A.381.381,0,0,0,17,8.859h1.453a.346.346,0,0,0,0-.692Z" transform="translate(-1.017 -1.356)"/>
  </g>
</svg>
