<svg xmlns="http://www.w3.org/2000/svg" viewBox="2017.875 607.875 20.25 20.25">
  <defs>
    <style>
      .cls-1 {
        fill: #fff;
        stroke: #fff;
        stroke-miterlimit: 10;
        stroke-width: 0.25px;
      }
    </style>
  </defs>
  <g id="setting" transform="translate(2017.7 607.4)">
    <path id="Path_70" data-name="Path 70" class="cls-1" d="M10.335,20.6a5.5,5.5,0,0,1-1.115-.076H9.011l-.557-2.51a7.967,7.967,0,0,1-1.812-.837L4.272,18.623l-.139-.152a7.2,7.2,0,0,1-1.115-.989l-.139-.152L4.133,14.9a6.3,6.3,0,0,1-.906-1.825L.509,12.615l-.07-.3v-.152C.37,11.779.37,11.4.3,11.018V10.79L2.878,9.725A7.246,7.246,0,0,1,3.366,7.6L1.485,5.543l.139-.152A10.891,10.891,0,0,1,2.391,4.25L2.53,4.1l2.509.837A6.51,6.51,0,0,1,6.851,3.566V1.056L7.06.98A7.6,7.6,0,0,1,8.453.6h.209L9.917,2.425a8.3,8.3,0,0,1,2.369.152L13.68.828,13.889.9c.488.228.976.456,1.394.684l.209.076-.279,2.129a9.468,9.468,0,0,1,1.742,1.673l1.951-.3.139.152a9.832,9.832,0,0,1,.7,1.521l.07.228L18.349,8.433c.07.228.07.38.139.608a7.2,7.2,0,0,1,.07,1.749l1.742.989v.228a6.478,6.478,0,0,1-.418,1.673l-.07.228-2.091.076a8.169,8.169,0,0,1-1.254,1.825l.767,2.053-.139.152a9.367,9.367,0,0,1-1.324,1.065l-.209.076-1.812-1.369a7.21,7.21,0,0,1-1.812.532h-.209L10.892,20.6h-.557Zm.418-.3Zm-1.254-.3a4.8,4.8,0,0,0,1.045,0l.767-2.281h.209a.584.584,0,0,0,.348-.076A7.21,7.21,0,0,0,13.68,17.1l.139-.076,1.742,1.369a10.223,10.223,0,0,0,.906-.684L15.7,15.657l.139-.152a7.355,7.355,0,0,0,1.324-1.977l.07-.152,2.021-.076a6.125,6.125,0,0,0,.279-1.217l-1.742-.989v-.228a7.2,7.2,0,0,0-.07-1.749c-.07-.228-.07-.456-.139-.76l-.07-.152,1.463-1.369a7.225,7.225,0,0,0-.488-1.065l-1.812.456-.139-.152A6.144,6.144,0,0,0,14.725,4.25l-.139-.076.279-2.129c-.279-.152-.627-.3-.976-.456L12.5,3.262l-.139-.076a7.282,7.282,0,0,0-2.578-.152H9.568L8.314,1.056c-.279.076-.627.152-.906.228V3.718l-.139.076A7.73,7.73,0,0,0,5.317,5.315l-.139.228L2.739,4.706a4.645,4.645,0,0,0-.488.76L3.993,7.52l-.139.152a6.7,6.7,0,0,0-.488,2.281v.152L.857,11.17A2.957,2.957,0,0,0,1,12.007H1l2.718.456.07.152a7.369,7.369,0,0,0,.976,1.977l.139.152L3.645,17.1c.209.228.488.456.7.684l2.3-1.369.139.076a9.828,9.828,0,0,0,2.021.913l.209.076Z" transform="translate(0 0)"/>
    <path id="Path_71" data-name="Path 71" class="cls-1" d="M13,16.811A4.789,4.789,0,0,1,8.265,12.7a4.844,4.844,0,0,1,3.972-5.627,4.753,4.753,0,0,1,3.624.837,4.915,4.915,0,0,1-2.021,8.821h0C13.562,16.734,13.283,16.811,13,16.811Zm.767-.38ZM13,7.609a2.181,2.181,0,0,0-.7.076,4.309,4.309,0,0,0-3.484,4.943,4.239,4.239,0,0,0,4.878,3.5h0a4.309,4.309,0,0,0,3.484-4.943,4.171,4.171,0,0,0-1.672-2.814A4.891,4.891,0,0,0,13,7.609Z" transform="translate(-2.391 -1.534)"/>
  </g>
</svg>
