<svg xmlns="http://www.w3.org/2000/svg" viewBox="2018 220 20 20.014">
  <defs>
    <style>
      .cls-1 {
        fill: #fff;
      }
    </style>
  </defs>
  <g id="urunlistesi" transform="translate(2017 219.919)">
    <path id="Path_59" data-name="Path 59" class="cls-1" d="M17.071.809l-.5-.143H16.5L14.143.095a.8.8,0,0,0-.929.571V.809h0c0,.786-1,1.5-2.214,1.5S8.786,1.666,8.786.809h0V.666A.761.761,0,0,0,7.857.095L5.5.666H5.429l-.5.143C4.286.952,1.357,1.952,1,10.023a.811.811,0,0,0,.214.571.772.772,0,0,0,.5.214H3.929v7.786a1.509,1.509,0,0,0,1.5,1.5H16.571a1.509,1.509,0,0,0,1.5-1.5V10.809h2.214a.556.556,0,0,0,.5-.214A.811.811,0,0,0,21,10.023C20.643,1.952,17.714.952,17.071.809Zm1,8.5V7.095a.714.714,0,0,0-1.429,0v11.5H5.429V7.095A.714.714,0,0,0,4,7.095V9.309H2.571c.429-6.429,2.571-7,2.571-7h.143l.571-.143L7.5,1.809A3.681,3.681,0,0,0,11,3.88a3.61,3.61,0,0,0,3.5-2.071l1.643.357.571.143h.071S19,2.88,19.429,9.38H18.071Z"/>
    <path id="Path_60" data-name="Path 60" class="cls-1" d="M18.857,8.4h-3a.357.357,0,1,0,0,.714h2.929a.337.337,0,0,0,.357-.357C19.214,8.543,19.071,8.4,18.857,8.4Z" transform="translate(-4.143 -2.377)"/>
  </g>
</svg>
